<?xml version="1.0" encoding="UTF-8"?>
<svg id="Layer_1" data-name="Layer 1" xmlns="http://www.w3.org/2000/svg" xmlns:xlink="http://www.w3.org/1999/xlink" viewBox="0 0 2118.15 1959.09">
  <defs>
    <style>.cls-1 {
  fill: #78c8ff;
}

.cls-2 {
  fill: url("#linear-gradient-2");
}

.cls-3 {
  fill: #eab91f;
}

.cls-4 {
  opacity: .69;
}

.cls-5, .cls-6 {
  fill: #fff;
}

.cls-7 {
  fill: url("#linear-gradient-17");
}

.cls-8 {
  fill: #d0d8e0;
}

.cls-9 {
  fill: #13161d;
}

.cls-10 {
  fill: url("#linear-gradient-15");
}

.cls-11 {
  fill: #f4ba7f;
}

.cls-12 {
  fill: url("#linear-gradient-18");
}

.cls-13 {
  fill: #e2e2e2;
}

.cls-14 {
  fill: url("#linear-gradient-40");
}

.cls-15 {
  fill: url("#linear-gradient-28");
}

.cls-16 {
  fill: url("#linear-gradient-14");
}

.cls-17 {
  fill: url("#linear-gradient-36");
}

.cls-18 {
  fill: url("#linear-gradient-20");
}

.cls-19 {
  fill: url("#linear-gradient-6");
}

.cls-20 {
  fill: #919eaa;
}

.cls-21 {
  fill: #303030;
}

.cls-22 {
  fill: #d1d9e0;
}

.cls-23 {
  fill: url("#linear-gradient-35");
}

.cls-24 {
  fill: #232323;
}

.cls-25 {
  fill: url("#linear-gradient-32");
}

.cls-26 {
  fill: url("#linear-gradient-11");
}

.cls-27 {
  fill: #4c0ca8;
}

.cls-28 {
  fill: #bac7d3;
}

.cls-29 {
  fill: url("#linear-gradient-39");
}

.cls-30 {
  opacity: .44;
}

.cls-31 {
  fill: url("#linear-gradient-10");
}

.cls-32 {
  fill: #fb6d47;
}

.cls-33 {
  fill: url("#linear-gradient-37");
}

.cls-34 {
  fill: url("#linear-gradient-16");
}

.cls-35 {
  opacity: .75;
}

.cls-36 {
  fill: url("#linear-gradient-31");
}

.cls-37 {
  fill: #40adad;
}

.cls-38 {
  fill: #eaeaea;
}

.cls-39 {
  fill: #5ae595;
}

.cls-40 {
  fill: #424242;
}

.cls-41 {
  fill: #2b2b2b;
}

.cls-42 {
  fill: #c3cdd8;
}

.cls-43 {
  fill: #a8b7c7;
}

.cls-44 {
  fill: #a0b0c1;
}

.cls-45 {
  fill: url("#linear-gradient-21");
}

.cls-46 {
  fill: #a4dfff;
}

.cls-47 {
  fill: url("#linear-gradient-25");
}

.cls-48 {
  opacity: .55;
}

.cls-49 {
  fill: url("#linear-gradient-5");
}

.cls-50 {
  fill: none;
  stroke: #f5d451;
  stroke-linecap: round;
  stroke-miterlimit: 10;
  stroke-width: 16.12px;
}

.cls-51 {
  fill: #d6e1ea;
}

.cls-52 {
  fill: #d3d3d3;
}

.cls-53 {
  fill: #ffdf7b;
}

.cls-54 {
  fill: #191919;
  opacity: .1;
}

.cls-55 {
  fill: url("#linear-gradient-34");
}

.cls-56 {
  fill: #f5d451;
}

.cls-57 {
  fill: #353535;
}

.cls-58 {
  fill: url("#linear-gradient-7");
}

.cls-59 {
  fill: #61bef2;
}

.cls-60 {
  fill: #2d2d2d;
}

.cls-61 {
  fill: #332955;
}

.cls-62 {
  fill: #f7f7f7;
}

.cls-63 {
  fill: url("#linear-gradient-24");
}

.cls-64 {
  fill: #430280;
}

.cls-65 {
  fill: #dfe3e8;
}

.cls-66 {
  fill: url("#linear-gradient-9");
}

.cls-67 {
  fill: url("#linear-gradient-22");
}

.cls-68 {
  fill: #4e6dc4;
}

.cls-69 {
  fill: url("#linear-gradient-3");
}

.cls-70 {
  fill: #0f0923;
}

.cls-71 {
  fill: url("#linear-gradient");
}

.cls-72 {
  fill: url("#linear-gradient-27");
}

.cls-73 {
  fill: #fcc490;
}

.cls-74 {
  fill: url("#linear-gradient-33");
}

.cls-75 {
  fill: url("#linear-gradient-38");
}

.cls-76 {
  fill: url("#linear-gradient-29");
}

.cls-77 {
  fill: #0bafc2;
}

.cls-78 {
  fill: url("#linear-gradient-30");
}

.cls-79 {
  fill: url("#linear-gradient-23");
}

.cls-80 {
  fill: url("#linear-gradient-19");
}

.cls-81 {
  fill: #231f20;
}

.cls-82 {
  fill: url("#linear-gradient-4");
}

.cls-83 {
  fill: #007ee5;
}

.cls-84 {
  fill: #49f2f2;
}

.cls-6 {
  opacity: .05;
}

.cls-85 {
  fill: url("#linear-gradient-8");
}

.cls-86 {
  fill: url("#linear-gradient-12");
}

.cls-87 {
  fill: url("#linear-gradient-13");
}

.cls-88 {
  fill: url("#linear-gradient-26");
}

.cls-89 {
  fill: #ededed;
}

</style>
    <linearGradient id="linear-gradient" x1="986.79" y1="593.25" x2="1440.68" y2="593.25" gradientUnits="userSpaceOnUse">
      <stop offset="0" stop-color="#20b5d8"></stop>
      <stop offset="1" stop-color="#8cee98"></stop>
    </linearGradient>
    <linearGradient id="linear-gradient-2" x1="1459.52" y1="924.51" x2="1616.42" y2="924.51" gradientUnits="userSpaceOnUse">
      <stop offset="0" stop-color="#ffb888"></stop>
      <stop offset=".29" stop-color="#ff9b57"></stop>
      <stop offset="1" stop-color="#ff6801"></stop>
    </linearGradient>
    <linearGradient id="linear-gradient-3" x1="1481.77" y1="917.14" x2="1594.17" y2="917.14" xlink:href="#linear-gradient-2"></linearGradient>
    <linearGradient id="linear-gradient-4" x1="1599.76" y1="839.45" x2="1756.66" y2="839.45" xlink:href="#linear-gradient-2"></linearGradient>
    <linearGradient id="linear-gradient-5" x1="1646.22" y1="839.29" x2="1710.21" y2="839.29" xlink:href="#linear-gradient-2"></linearGradient>
    <linearGradient id="linear-gradient-6" x1="1646.22" y1="839.61" x2="1710.21" y2="839.61" xlink:href="#linear-gradient-2"></linearGradient>
    <linearGradient id="linear-gradient-7" x1="1670.6" y1="631.71" x2="1827.5" y2="631.71" xlink:href="#linear-gradient-2"></linearGradient>
    <linearGradient id="linear-gradient-8" x1="1652.37" y1="577.24" x2="1814.53" y2="577.24" xlink:href="#linear-gradient-2"></linearGradient>
    <linearGradient id="linear-gradient-9" x1="1678.93" y1="683.82" x2="1845.74" y2="683.82" xlink:href="#linear-gradient-2"></linearGradient>
    <linearGradient id="linear-gradient-10" x1="1738.72" y1="631.71" x2="1759.38" y2="631.71" xlink:href="#linear-gradient-2"></linearGradient>
    <linearGradient id="linear-gradient-11" x1="2449.2" y1="-2748.59" x2="2870.02" y2="-2748.59" gradientTransform="translate(5083.08 1189) rotate(-120)" xlink:href="#linear-gradient-2"></linearGradient>
    <linearGradient id="linear-gradient-12" x1="1693.99" y1="-1998.88" x2="975" y2="-1981.9" gradientTransform="translate(3816.31 557.2) rotate(-120)" gradientUnits="userSpaceOnUse">
      <stop offset="0" stop-color="#ffb888"></stop>
      <stop offset="1" stop-color="#fff"></stop>
    </linearGradient>
    <linearGradient id="linear-gradient-13" x1="617.67" y1="763.94" x2="1032.85" y2="763.94" gradientUnits="userSpaceOnUse">
      <stop offset="0" stop-color="#e2e3e5"></stop>
      <stop offset="1" stop-color="#efefef"></stop>
    </linearGradient>
    <linearGradient id="linear-gradient-14" x1="617.67" y1="690.22" x2="737.3" y2="690.22" xlink:href="#linear-gradient"></linearGradient>
    <linearGradient id="linear-gradient-15" x1="740.91" y1="716.04" x2="821.53" y2="716.04" xlink:href="#linear-gradient"></linearGradient>
    <linearGradient id="linear-gradient-16" x1="745.18" y1="753.86" x2="801.4" y2="753.86" xlink:href="#linear-gradient"></linearGradient>
    <linearGradient id="linear-gradient-17" x1="826.64" y1="801.27" x2="882.87" y2="801.27" xlink:href="#linear-gradient"></linearGradient>
    <linearGradient id="linear-gradient-18" x1="909.77" y1="848.96" x2="965.99" y2="848.96" xlink:href="#linear-gradient"></linearGradient>
    <linearGradient id="linear-gradient-19" x1="823.03" y1="763.91" x2="903.65" y2="763.91" xlink:href="#linear-gradient"></linearGradient>
    <linearGradient id="linear-gradient-20" x1="905.14" y1="811.79" x2="985.76" y2="811.79" xlink:href="#linear-gradient"></linearGradient>
    <linearGradient id="linear-gradient-21" x1="723.18" y1="801.74" x2="803.8" y2="801.74" xlink:href="#linear-gradient"></linearGradient>
    <linearGradient id="linear-gradient-22" x1="805.29" y1="849.61" x2="885.91" y2="849.61" xlink:href="#linear-gradient"></linearGradient>
    <linearGradient id="linear-gradient-23" x1="887.4" y1="897.49" x2="968.02" y2="897.49" xlink:href="#linear-gradient"></linearGradient>
    <linearGradient id="linear-gradient-24" x1="674.17" y1="563.94" x2="975.67" y2="563.94" xlink:href="#linear-gradient-13"></linearGradient>
    <linearGradient id="linear-gradient-25" x1="725.19" y1="389.92" x2="1026.7" y2="389.92" xlink:href="#linear-gradient"></linearGradient>
    <linearGradient id="linear-gradient-26" x1="374.75" y1="965.48" x2="466.27" y2="965.48" xlink:href="#linear-gradient-13"></linearGradient>
    <linearGradient id="linear-gradient-27" x1="117.04" y1="1162.46" x2="466.27" y2="1162.46" xlink:href="#linear-gradient-2"></linearGradient>
    <linearGradient id="linear-gradient-28" x1="390.46" y1="1167.27" x2="676.95" y2="1167.27" xlink:href="#linear-gradient-13"></linearGradient>
    <linearGradient id="linear-gradient-29" x1="917.66" y1="1177.48" x2="1024.58" y2="1177.48" xlink:href="#linear-gradient-13"></linearGradient>
    <linearGradient id="linear-gradient-30" x1="1595.62" y1="1693.9" x2="1817.58" y2="1693.9" xlink:href="#linear-gradient-13"></linearGradient>
    <linearGradient id="linear-gradient-31" x1="1745.35" y1="1583.36" x2="1376.09" y2="1407.37" gradientUnits="userSpaceOnUse">
      <stop offset="0" stop-color="#f3f7ff"></stop>
      <stop offset="1" stop-color="#cdd9ff"></stop>
    </linearGradient>
    <linearGradient id="linear-gradient-32" x1="1401.39" y1="1512.01" x2="1789.92" y2="1512.01" gradientUnits="userSpaceOnUse">
      <stop offset="0" stop-color="#f5995b"></stop>
      <stop offset="1" stop-color="#fb5f5c"></stop>
    </linearGradient>
    <linearGradient id="linear-gradient-33" x1="1373.56" y1="1693.9" x2="1595.67" y2="1693.9" xlink:href="#linear-gradient-13"></linearGradient>
    <linearGradient id="linear-gradient-34" x1="1191.9" y1="1376.15" x2="1595.67" y2="1376.15" xlink:href="#linear-gradient"></linearGradient>
    <linearGradient id="linear-gradient-35" x1="1373.56" y1="1314.78" x2="1616.48" y2="1314.78" xlink:href="#linear-gradient"></linearGradient>
    <linearGradient id="linear-gradient-36" x1="1557.38" y1="1202.93" x2="1927.13" y2="1202.93" xlink:href="#linear-gradient"></linearGradient>
    <linearGradient id="linear-gradient-37" x1="1932.48" y1="1238.97" x2="1505.09" y2="1374.1" xlink:href="#linear-gradient"></linearGradient>
    <linearGradient id="linear-gradient-38" x1="1595.67" y1="1403.61" x2="2118.15" y2="1403.61" xlink:href="#linear-gradient"></linearGradient>
    <linearGradient id="linear-gradient-39" x1="1502.96" y1="1620.37" x2="1784.87" y2="1620.37" xlink:href="#linear-gradient"></linearGradient>
    <linearGradient id="linear-gradient-40" x1="1377.38" y1="675.53" x2="1478.74" y2="675.53" xlink:href="#linear-gradient-2"></linearGradient>
  </defs>
  <g class="cls-35">
    <path class="cls-71" d="M1440.68,577.07v294.42c0,13.84-9.72,19.44-21.7,12.53l-410.5-236.99c-11.98-6.92-21.7-23.74-21.7-37.58V315.02c0-13.84,9.72-19.46,21.7-12.54l410.5,236.99c11.98,6.92,21.7,23.75,21.7,37.59Z"></path>
    <path class="cls-61" d="M1440.68,577.07v38.27s-453.89-262.05-453.89-262.05v-38.27c0-13.84,9.71-19.46,21.7-12.54l410.5,236.99c11.98,6.92,21.7,23.75,21.7,37.59Z"></path>
    <path class="cls-84" d="M1028.38,343.9c0,6.92-4.86,9.72-10.85,6.26-5.99-3.46-10.85-11.87-10.85-18.79,0-6.92,4.86-9.72,10.85-6.26,5.99,3.46,10.85,11.87,10.85,18.79Z"></path>
    <path class="cls-84" d="M1067.56,366.52c0,6.92-4.86,9.72-10.85,6.26-5.99-3.46-10.85-11.87-10.85-18.79,0-6.92,4.86-9.72,10.85-6.26,5.99,3.46,10.85,11.87,10.85,18.79Z"></path>
    <path class="cls-84" d="M1106.74,389.14c0,6.92-4.86,9.72-10.85,6.26-5.99-3.46-10.85-11.87-10.85-18.79,0-6.92,4.86-9.72,10.85-6.26,5.99,3.46,10.85,11.87,10.85,18.79Z"></path>
    <g>
      <path d="M1177.45,557.72l-46.72-54.07v-3.7l46.72-3.26v9.41s-34.88,2.2-34.88,2.2v.25l34.88,39.83v9.35Z"></path>
      <path d="M1236.23,509.67l-37.38,83.3-8.31-4.8,37.27-83.37,8.42,4.86Z"></path>
      <path d="M1296.91,599.59l-46.72,.13v-9.35l34.99,.63v-.38l-34.99-42.53v-9.41l46.72,57.21v3.7Z"></path>
    </g>
    <polygon points="1386.03 735.88 1055.1 544.82 1055.1 527.54 1386.03 718.59 1386.03 735.88"></polygon>
    <polygon points="1386.03 775.55 1055.1 584.49 1055.1 567.21 1386.03 758.26 1386.03 775.55"></polygon>
    <polygon points="1238.15 729.84 1055.1 624.17 1055.1 606.88 1238.15 712.56 1238.15 729.84"></polygon>
  </g>
  <g>
    <g>
      <path class="cls-70" d="M480.22,436.37s0,4.86-9.34,4.86-8.93-4.86-8.93-4.86v-11.66h18.27v11.66Z"></path>
      <path class="cls-59" d="M500.82,417.15s0,15.82-30.4,15.82-29.07-15.82-29.07-15.82v-37.96h59.47v37.96Z"></path>
      <path class="cls-1" d="M505.43,387.81s0,18.27-35.11,18.27-33.57-18.27-33.57-18.27v-43.84h68.68v43.84Z"></path>
      <circle class="cls-56" cx="471.38" cy="242.48" r="71.75"></circle>
      <ellipse class="cls-53" cx="471.38" cy="201.95" rx="36.33" ry="29.55"></ellipse>
      <path class="cls-51" d="M533.05,279.25s-22.77,45.34-22.77,83.72c0,0-4.86,17.07-40.48,17.07s-37.28-17.07-37.28-17.07c0-31.11-14.96-66.8-20.63-79.19-1.33-2.9-2.14-4.52-2.14-4.52,0,0,25.37,14.46,61.65,14.46,38.34,0,61.65-14.46,61.65-14.46Z"></path>
      <path class="cls-28" d="M527.98,286.58c-5.06,3.2-28.16,14.75-56.6,13.65-31.32-1.21-53.28-9.97-53.28-9.97,0,0,17.48,45.84,14.42,72.71,0-31.11-14.96-66.8-20.63-79.19,.67,.26,1.31,.57,1.93,.92,0,0,21.95,12.73,57.07,13.52,29.93,.67,52.95-9.14,57.08-11.63Z"></path>
    </g>
    <line class="cls-50" x1="376.16" y1="236.66" x2="256.99" y2="189.6"></line>
    <line class="cls-50" x1="383.54" y1="288.77" x2="308.48" y2="344.94"></line>
    <line class="cls-50" x1="577.99" y1="231.5" x2="686.78" y2="182"></line>
    <line class="cls-50" x1="471.32" y1="142.22" x2="471.4" y2="8.06"></line>
    <line class="cls-50" x1="539.12" y1="170.01" x2="599.33" y2="62.47"></line>
    <line class="cls-50" x1="395.9" y1="172.39" x2="316.58" y2="81.71"></line>
    <line class="cls-50" x1="561.8" y1="291.85" x2="636.86" y2="348.02"></line>
  </g>
  <g>
    <path class="cls-2" d="M1537.97,833.92c-43.33-25.01-78.45-4.74-78.45,45.3s35.12,110.87,78.45,135.88c43.33,25.01,78.45,4.73,78.45-45.3s-35.12-110.87-78.45-135.88Zm0,165.36c-35.76-20.65-64.75-70.86-64.75-112.15s28.99-58.03,64.75-37.38c35.76,20.65,64.75,70.86,64.75,112.15s-28.99,58.03-64.75,37.38Z"></path>
    <path class="cls-69" d="M1594.17,931.95l-67.55,16.07c-8.83,2.09-21.05-7.42-27.27-21.21l-17.59-39,8.34-1.83,14.07,31.17c4.92,10.91,14.57,18.42,21.56,16.77l61.3-14.62c.25-.07,.5-.13,.75-.21l6.39,12.86Z"></path>
  </g>
  <g>
    <path class="cls-82" d="M1678.21,748.86c-43.33-25.01-78.45-4.73-78.45,45.3s35.12,110.87,78.45,135.88c43.33,25.02,78.45,4.74,78.45-45.3,0-50.03-35.12-110.86-78.45-135.88Zm0,165.36c-35.76-20.65-64.75-70.86-64.75-112.15s28.99-58.03,64.75-37.38c35.76,20.64,64.75,70.86,64.75,112.15s-28.99,58.03-64.75,37.38Z"></path>
    <g>
      <path class="cls-49" d="M1656.57,876.55l53.63-60.84-10.91-13.69c-.2,.27-.41,.52-.62,.77l-52.03,59.09c-.14,.15-.29,.28-.43,.42l10.36,14.25Z"></path>
      <path class="cls-19" d="M1699.85,901.54l-53.63-122.77,10.91-1.09c.2,.5,.41,.99,.61,1.48l52.03,119.16c.14,.31,.29,.61,.43,.91l-10.36,2.3Z"></path>
    </g>
  </g>
  <g>
    <path class="cls-58" d="M1749.05,541.12c-43.33-25.01-78.45-4.73-78.45,45.3s35.12,110.87,78.45,135.88c43.33,25.02,78.45,4.74,78.45-45.29,0-50.03-35.12-110.86-78.45-135.88Zm0,165.36c-35.76-20.65-64.75-70.86-64.75-112.15s28.99-58.03,64.75-37.38c35.76,20.65,64.75,70.86,64.75,112.15s-28.99,58.03-64.75,37.38Z"></path>
    <g>
      <path class="cls-85" d="M1749.06,529.88c18.69,10.79,35.98,27.56,50.24,47.25l-5.03,2.51,20.26,13.64-1.81-22.87-7.07,3.54c-15.92-22.5-35.45-41.67-56.6-53.88-53.4-30.83-96.68-5.84-96.69,55.82,0,23.05,6.06,47.96,16.42,71.73l6.27-3.25c-8.96-21.12-14.2-43.15-14.2-63.57,0-56.23,39.48-79.03,88.19-50.92Z"></path>
      <path class="cls-66" d="M1827.19,611.1l-6.22,3.22c10.24,22.54,16.27,46.34,16.27,68.3,0,56.24-39.48,79.03-88.18,50.91-20.45-11.81-39.25-30.74-54.2-52.87l4.54-2.13-20.46-18.05,4.61,25.48,4.9-2.29c16.58,25.01,37.65,46.43,60.61,59.68,53.39,30.83,96.68,5.84,96.68-55.82,0-24.57-6.9-51.26-18.55-76.42Z"></path>
    </g>
    <path class="cls-31" d="M1759.38,637.67c0,6.59-4.63,9.26-10.33,5.97-5.7-3.3-10.33-11.31-10.33-17.89s4.63-9.26,10.33-5.97c5.7,3.3,10.33,11.31,10.33,17.89Z"></path>
  </g>
  <g>
    <path class="cls-26" d="M1220.81,104.98l13,22.52c-.16,.68-.33,1.35-.48,2.04,.89,.53,1.76,1.1,2.63,1.69l2.19,3.79,1.67-.96c17,13.42,29.82,36.71,29.82,55.81,0,21.48-16.21,29.56-36.31,18.44,.02,.12,.04,.23,.06,.35l-.17-.29-31.87,18.4,20.83,36.07,21.84-12.61c2.61,7.88,5.53,15.74,8.76,23.53,14.56-7.69,36.65,4.18,49.8,26.96,13.13,22.76,12.37,47.86-1.55,56.59,4.11,5.36,8.35,10.56,12.71,15.6l-21,12.13,23.28,40.32,31.87-18.4-.16-.27c.08,.07,.17,.14,.25,.22,.44-22.99,15.54-32.97,34.13-22.24,11.64,6.72,21.92,20.01,28.08,34.77l-5.87,3.39,11.74,20.33c.07,1.05,.13,2.09,.15,3.13,.67,.21,1.34,.4,2,.6l13,22.52,32.03-18.49-1.36-2.36c-12.67-24.09-12.99-48.67-.25-56,4.49-2.6,10.04-2.71,15.97-.76l-20.15,11.64,22,38.11,31.98-18.47h0c8.96-11.28,15.59-25.71,19.45-43-20.13-12.11-36.3-38.87-36.29-60.34,0-2.33,.2-4.49,.56-6.5l3.76,6.52,31.91-18.42-.06-.1s.08,.04,.12,.06c-3.86-21.74-10.5-43.86-19.46-65.47-14.52,7.69-36.64-4.2-49.78-26.95-13.15-22.77-12.38-47.85,1.54-56.61-14.26-18.55-30.06-35.36-46.96-49.57,0,.05,0,.09,0,.13l-.06-.1-31.91,18.42,3.76,6.52c-1.92-.69-3.89-1.59-5.91-2.76-18.59-10.73-33.68-38.12-34.12-61.62-16.89-5.3-32.72-6.76-46.96-4.64,.99,1.76,1.91,3.53,2.76,5.3l-2.99-5.17-31.74,18.33,23.45,40.62,17.56-10.14c-1.55,4.19-4.03,7.46-7.49,9.46-13.15,7.59-35.27-6.07-49.8-30.55-.05,.06-.09,.12-.14,.18l-.04-.07-31.79,18.36Zm161.3,75.58c35.51,20.5,64.29,70.37,64.28,111.35,0,41.01-28.78,57.65-64.29,37.14-35.5-20.49-64.28-70.35-64.3-111.36,0-41,28.8-57.63,64.31-37.13Z"></path>
    <path class="cls-86" d="M1384.23,464.75c16.91,5.3,32.72,6.76,46.98,4.67-13.94-24.84-14.71-50.82-1.56-58.4,13.14-7.6,35.27,6.05,49.79,30.53,8.96-11.28,15.6-25.71,19.45-43-20.13-12.11-36.3-38.87-36.29-60.34,0-21.47,16.17-29.57,36.3-18.43-3.86-21.74-10.51-43.86-19.46-65.47-14.52,7.69-36.64-4.2-49.78-26.96-13.15-22.77-12.38-47.85,1.55-56.61-14.26-18.55-30.06-35.36-46.96-49.57-.44,22.97-15.53,32.95-34.11,22.22-18.59-10.73-33.68-38.12-34.13-61.62-16.89-5.3-32.72-6.76-46.95-4.64,13.92,24.83,14.69,50.81,1.55,58.4-13.15,7.59-35.27-6.07-49.8-30.55-8.95,11.27-15.6,25.71-19.45,43.02,20.12,12.09,36.31,38.86,36.31,60.33,0,21.48-16.2,29.55-36.31,18.44,3.85,21.74,10.5,43.84,19.45,65.46,14.56-7.69,36.65,4.18,49.8,26.96,13.13,22.76,12.37,47.86-1.55,56.59,14.23,18.56,30.07,35.38,46.96,49.59,.44-22.99,15.54-32.97,34.13-22.24,18.57,10.72,33.67,38.14,34.1,61.62Zm-34.11-117.24c-35.5-20.49-64.28-70.35-64.3-111.36,0-41,28.8-57.63,64.31-37.13,35.51,20.5,64.29,70.37,64.28,111.35,0,41.01-28.78,57.66-64.29,37.14Z"></path>
  </g>
  <g>
    <path class="cls-3" d="M1453.12,449.43l7.59,13.15c-.09,.4-.19,.79-.28,1.19,.52,.32,1.04,.67,1.55,1.02l1.26,2.18,.96-.56c9.93,7.84,17.43,21.43,17.43,32.59,0,12.54-9.46,17.26-21.21,10.77,.01,.07,.03,.14,.04,.21l-.1-.17-18.61,10.74,12.16,21.06,12.75-7.36c1.52,4.6,3.22,9.19,5.11,13.74,8.5-4.49,21.4,2.44,29.08,15.75,7.67,13.29,7.22,27.95-.91,33.05,2.4,3.13,4.88,6.16,7.43,9.11l-12.27,7.09,13.59,23.55,18.61-10.75-.09-.16c.05,.04,.1,.09,.15,.13,.26-13.43,9.07-19.25,19.93-12.99,6.8,3.92,12.8,11.68,16.39,20.31l-3.43,1.98,6.84,11.85c.04,.62,.09,1.24,.1,1.85,.39,.12,.78,.24,1.17,.35l7.59,13.15,18.71-10.8-.8-1.38c-7.4-14.07-7.58-28.42-.15-32.7,2.62-1.52,5.86-1.58,9.33-.44l-11.77,6.79,12.85,22.26,18.68-10.78h0c5.23-6.59,9.1-15.02,11.36-25.11-11.75-7.07-21.2-22.7-21.19-35.24,0-1.36,.12-2.62,.33-3.79l2.2,3.81,18.63-10.76-.03-.06s.05,.02,.07,.04c-2.25-12.69-6.13-25.61-11.37-38.23-8.48,4.49-21.4-2.45-29.07-15.74-7.68-13.3-7.23-27.94,.9-33.06-8.32-10.83-17.55-20.65-27.42-28.95,0,.03,0,.05,0,.08l-.03-.06-18.63,10.76,2.2,3.81c-1.12-.4-2.27-.93-3.45-1.61-10.86-6.26-19.67-22.26-19.93-35.99-9.86-3.09-19.11-3.95-27.42-2.71,.58,1.03,1.11,2.06,1.61,3.1l-1.74-3.02-18.54,10.7,13.7,23.72,10.25-5.92c-.9,2.44-2.35,4.36-4.37,5.52-7.68,4.43-20.59-3.55-29.08-17.84-.03,.03-.05,.07-.08,.1l-.02-.04-18.57,10.72Zm94.19,44.13c20.73,11.97,37.54,41.09,37.54,65.03,0,23.95-16.81,33.67-37.54,21.69-20.73-11.96-37.54-41.08-37.55-65.03,0-23.94,16.82-33.65,37.55-21.68Z"></path>
    <path class="cls-56" d="M1548.55,659.52c9.88,3.09,19.11,3.94,27.43,2.72-8.14-14.5-8.59-29.68-.91-34.1,7.67-4.44,20.59,3.53,29.08,17.83,5.23-6.59,9.11-15.02,11.36-25.11-11.75-7.07-21.2-22.7-21.19-35.24,0-12.54,9.44-17.27,21.2-10.76-2.25-12.69-6.13-25.61-11.37-38.23-8.48,4.49-21.4-2.45-29.07-15.74-7.68-13.3-7.23-27.94,.9-33.06-8.33-10.83-17.55-20.65-27.42-28.95-.25,13.42-9.07,19.24-19.92,12.97-10.86-6.26-19.67-22.26-19.93-35.99-9.86-3.09-19.11-3.95-27.42-2.71,8.13,14.5,8.58,29.67,.9,34.11-7.68,4.43-20.59-3.55-29.08-17.84-5.23,6.58-9.11,15.02-11.36,25.12,11.75,7.06,21.21,22.69,21.2,35.23,0,12.54-9.46,17.26-21.2,10.77,2.25,12.7,6.13,25.6,11.36,38.22,8.5-4.49,21.4,2.44,29.08,15.75,7.67,13.29,7.22,27.95-.91,33.05,8.31,10.84,17.56,20.66,27.42,28.96,.26-13.43,9.07-19.25,19.93-12.99,10.85,6.26,19.66,22.27,19.91,35.98Zm-19.92-68.46c-20.73-11.96-37.54-41.08-37.55-65.03,0-23.94,16.82-33.65,37.55-21.68,20.73,11.97,37.54,41.09,37.54,65.03,0,23.95-16.81,33.67-37.54,21.69Z"></path>
  </g>
  <g>
    <path class="cls-81" d="M1030.32,1959.09c-.82,0-1.64-.06-2.47-.18-9.09-1.36-15.36-9.82-14.01-18.92l90.77-609.08,341.95-197.42,93.79,520.99c1.63,9.05-4.38,17.7-13.43,19.33-9.05,1.62-17.7-4.39-19.33-13.43l-85.4-474.38-287.02,165.71-88.4,593.19c-1.23,8.26-8.33,14.19-16.44,14.19Z"></path>
    <rect class="cls-81" x="1043.28" y="1533.3" width="471.7" height="33.29" transform="translate(-603.59 847.18) rotate(-30)"></rect>
  </g>
  <rect class="cls-81" x="873.29" y="775.75" width="33.29" height="996.24" transform="translate(-658.24 1407.63) rotate(-60)"></rect>
  <g>
    <path class="cls-81" d="M215.4,1487.69c-.82,0-1.64-.06-2.47-.18-9.09-1.36-15.36-9.82-14.01-18.92l90.77-609.08,341.95-197.42,93.79,520.99c1.63,9.05-4.38,17.7-13.43,19.33-9.05,1.62-17.7-4.38-19.33-13.43l-85.4-474.38-287.02,165.71-88.4,593.19c-1.23,8.26-8.33,14.19-16.44,14.19Z"></path>
    <rect class="cls-81" x="228.36" y="1061.89" width="471.7" height="33.29" transform="translate(-477.06 376.58) rotate(-30)"></rect>
  </g>
  <path class="cls-32" d="M1509.89,1097.41l-840.23-485.12c-17.32-10-45.41-10-62.74,0L132.62,886.13v-.91h-36.29v32.41c-.03,6.58,4.3,13.16,12.99,18.18l862.77,498.13c17.32,10,45.41,10,62.74,0l497.6-287.3c8.37-4.83,12.68-11.12,12.97-17.45h.03v-31.78h-35.53Z"></path>
  <path class="cls-62" d="M1532.42,1114.07l-497.6,287.3c-17.32,10-45.41,10-62.74,0L109.31,903.24c-17.32-10-17.32-26.22,0-36.22l497.6-287.3c17.32-10,45.41-10,62.74,0l862.77,498.13c17.32,10,17.32,26.22,0,36.22Z"></path>
  <g>
    <g>
      <polygon class="cls-46" points="1142.56 847.52 1198.7 879.94 1142.56 874.37 1089.17 905.19 1033.03 872.78 1086.42 841.96 1142.56 847.52"></polygon>
      <polygon class="cls-37" points="1192.94 878.09 1142.44 873.04 1142.25 873.04 1089.19 903.72 1035.55 872.78 1086.69 843.25 1142.44 848.81 1192.94 878.09"></polygon>
      <polygon class="cls-83" points="1142.44 848.81 1142.44 873.04 1142.25 873.04 1089.19 903.72 1035.55 872.78 1086.69 843.25 1142.44 848.81"></polygon>
      <polygon class="cls-89" points="1081.61 839.45 1081.61 985.55 1177.78 930.01 1177.78 783.91 1081.61 839.45"></polygon>
      <g>
        <polygon class="cls-1" points="1089.16 1118.04 1033.02 1085.62 1033.03 872.78 1089.17 905.19 1089.16 1118.04"></polygon>
        <polygon class="cls-5" points="1079.81 927.88 1042.38 906.27 1042.38 898.17 1079.81 919.78 1079.81 927.88"></polygon>
        <polygon class="cls-5" points="1079.81 941.05 1042.38 919.44 1042.38 911.34 1079.81 932.95 1079.81 941.05"></polygon>
        <polygon class="cls-5" points="1079.81 954.22 1042.38 932.61 1042.38 924.51 1079.81 946.11 1079.81 954.22"></polygon>
        <polygon class="cls-5" points="1079.81 967.39 1042.38 945.78 1042.38 937.67 1079.81 959.28 1079.81 967.39"></polygon>
        <polygon class="cls-5" points="1074.72 1092.48 1047.47 1076.75 1047.47 1068.65 1074.72 1084.38 1074.72 1092.48"></polygon>
        <polygon class="cls-5" points="1079.81 1064.56 1042.38 1042.95 1042.38 968.54 1079.81 990.15 1079.81 1064.56"></polygon>
      </g>
      <polygon class="cls-83" points="1198.7 1054.79 1198.7 879.94 1142.56 874.36 1142.56 874.37 1089.17 905.19 1089.17 1118.04 1145.31 1085.62 1145.31 1085.61 1198.7 1054.79"></polygon>
      <g class="cls-30">
        <path class="cls-5" d="M1107.54,1086.2v-170.39l39.11-22.57,33.67,3.35v147.6s-72.77,42.02-72.77,42.02Zm1.6-169.47v166.7l69.58-40.18v-145.22s-31.73-3.16-31.73-3.16l-37.86,21.86Z"></path>
      </g>
      <polygon class="cls-62" points="1081.61 900.84 1081.61 839.45 1054.47 823.78 1054.47 885.18 1081.61 900.84"></polygon>
      <polygon class="cls-5" points="1177.78 783.91 1081.61 839.45 1054.47 823.78 1150.65 768.25 1177.78 783.91"></polygon>
      <polygon class="cls-46" points="1053.26 883 1089.19 903.72 1142.44 873.04 1177.78 876.57 1184.24 878.5 1142.56 874.37 1089.17 905.19 1044.34 879.31 1053.26 883"></polygon>
    </g>
    <g>
      <polygon class="cls-46" points="1207.02 885.06 1263.16 917.47 1207.02 911.9 1153.63 942.73 1097.49 910.32 1150.88 879.49 1207.02 885.06"></polygon>
      <polygon class="cls-1" points="1257.4 915.62 1206.9 910.57 1206.71 910.57 1153.65 941.26 1100.01 910.32 1151.16 880.78 1206.9 886.34 1257.4 915.62"></polygon>
      <polygon class="cls-83" points="1206.9 886.34 1206.9 910.57 1206.71 910.57 1153.65 941.26 1100.01 910.32 1151.16 880.78 1206.9 886.34"></polygon>
      <polygon class="cls-89" points="1146.07 876.98 1146.07 1023.09 1242.25 967.55 1242.24 821.45 1146.07 876.98"></polygon>
      <g>
        <polygon class="cls-1" points="1153.63 1155.57 1097.48 1123.16 1097.49 910.32 1153.63 942.73 1153.63 1155.57"></polygon>
        <polygon class="cls-5" points="1144.27 965.42 1106.84 943.81 1106.84 935.71 1144.27 957.32 1144.27 965.42"></polygon>
        <polygon class="cls-5" points="1144.27 978.59 1106.84 956.98 1106.84 948.88 1144.27 970.48 1144.27 978.59"></polygon>
        <polygon class="cls-5" points="1144.27 991.75 1106.84 970.15 1106.84 962.04 1144.27 983.65 1144.27 991.75"></polygon>
        <polygon class="cls-5" points="1144.27 1004.92 1106.84 983.31 1106.84 975.21 1144.27 996.82 1144.27 1004.92"></polygon>
        <polygon class="cls-5" points="1139.18 1130.02 1111.93 1114.28 1111.93 1106.18 1139.18 1121.91 1139.18 1130.02"></polygon>
        <polygon class="cls-5" points="1144.27 1102.09 1106.84 1080.48 1106.84 1006.07 1144.27 1027.68 1144.27 1102.09"></polygon>
      </g>
      <polygon class="cls-83" points="1263.16 1092.32 1263.16 917.47 1207.02 911.89 1207.02 911.9 1153.63 942.73 1153.63 1155.57 1209.77 1123.16 1209.77 1123.15 1263.16 1092.32"></polygon>
      <g class="cls-30">
        <path class="cls-5" d="M1172.01,1123.73v-170.39l39.11-22.57,33.67,3.35v147.6s-72.77,42.02-72.77,42.02Zm1.6-169.47v166.7l69.58-40.18v-145.22s-31.73-3.16-31.73-3.16l-37.86,21.86Z"></path>
      </g>
      <polygon class="cls-62" points="1146.07 938.38 1146.07 876.98 1118.93 861.32 1118.93 922.71 1146.07 938.38"></polygon>
      <polygon class="cls-5" points="1242.24 821.45 1146.07 876.98 1118.93 861.32 1215.11 805.78 1242.24 821.45"></polygon>
    </g>
    <polygon class="cls-46" points="1117.73 920.53 1153.65 941.26 1206.9 910.57 1242.25 914.11 1248.71 916.04 1207.02 911.9 1153.63 942.73 1108.8 916.85 1117.73 920.53"></polygon>
  </g>
  <g>
    <g>
      <polygon class="cls-20" points="980.54 1041.1 987.78 1039.22 1052.73 729.2 1045.48 731.08 980.54 1041.1"></polygon>
      <polygon class="cls-20" points="987.54 1039.35 987.54 1017.59 742.75 1158.91 742.75 1180.68 987.54 1039.35"></polygon>
    </g>
    <g>
      <polygon class="cls-65" points="1045.48 731.08 1052.73 729.2 671.91 510.42 664.66 512.3 1045.48 731.08"></polygon>
      <polygon class="cls-44" points="742.75 1180.68 742.75 1158.91 361.93 940.13 361.93 961.9 742.75 1180.68"></polygon>
    </g>
    <polygon class="cls-42" points="985.18 1018.94 604.36 800.17 361.93 940.13 742.75 1158.91 985.18 1018.94"></polygon>
    <polygon class="cls-20" points="945.73 1012.97 941.73 1015.29 795.27 1099.85 469.21 912.54 465.21 910.23 615.67 823.36 945.73 1012.97"></polygon>
    <polygon class="cls-22" points="941.73 1015.29 795.27 1099.85 469.21 912.54 615.67 827.98 941.73 1015.29"></polygon>
    <polygon class="cls-8" points="1045.48 731.08 664.66 512.3 604.36 800.17 985.18 1018.94 1045.48 731.08"></polygon>
    <polygon class="cls-87" points="1032.85 749.8 1023.79 793.09 982.97 987.95 691.6 820.55 617.67 778.09 658.5 583.23 663.39 559.88 667.57 539.93 1032.85 749.8"></polygon>
    <polygon class="cls-16" points="737.3 602.34 728.24 645.63 691.6 820.55 617.67 778.09 658.5 583.23 663.39 559.88 737.3 602.34"></polygon>
    <polygon class="cls-10" points="821.53 707.71 809.76 763.91 740.91 724.36 746.8 696.28 752.68 668.16 821.53 707.71"></polygon>
    <polygon class="cls-5" points="714.74 650.68 715.94 644.98 660.91 613.37 659.71 619.07 714.74 650.68"></polygon>
    <polygon class="cls-34" points="800.21 772.52 801.4 766.82 746.37 735.21 745.18 740.91 800.21 772.52"></polygon>
    <polygon class="cls-7" points="881.67 819.93 882.87 814.23 827.84 782.62 826.64 788.32 881.67 819.93"></polygon>
    <polygon class="cls-12" points="964.8 867.62 965.99 861.92 910.96 830.31 909.77 836 964.8 867.62"></polygon>
    <polygon class="cls-5" points="711.57 665.45 712.76 659.75 657.73 628.14 656.54 633.84 711.57 665.45"></polygon>
    <polygon class="cls-5" points="708.39 680.22 709.59 674.52 654.56 642.91 653.36 648.61 708.39 680.22"></polygon>
    <polygon class="cls-5" points="705.22 694.99 706.41 689.29 651.38 657.68 650.19 663.38 705.22 694.99"></polygon>
    <polygon class="cls-5" points="702.04 709.76 703.24 704.07 648.21 672.45 647.01 678.15 702.04 709.76"></polygon>
    <polygon class="cls-5" points="698.87 724.54 700.06 718.84 645.03 687.22 643.84 692.92 698.87 724.54"></polygon>
    <polygon class="cls-5" points="695.69 739.31 696.89 733.61 641.86 701.99 640.66 707.69 695.69 739.31"></polygon>
    <polygon class="cls-5" points="692.52 754.08 693.71 748.38 638.68 716.76 637.49 722.46 692.52 754.08"></polygon>
    <polygon class="cls-80" points="903.65 755.59 891.87 811.79 823.03 772.24 828.91 744.15 834.79 716.04 903.65 755.59"></polygon>
    <polygon class="cls-18" points="985.76 803.46 973.98 859.66 905.14 820.11 911.02 792.03 916.91 763.91 985.76 803.46"></polygon>
    <polygon class="cls-45" points="803.8 793.42 792.02 849.61 723.18 810.06 729.06 781.98 734.94 753.86 803.8 793.42"></polygon>
    <polygon class="cls-67" points="885.91 841.29 874.13 897.49 805.29 857.94 811.17 829.86 817.06 801.74 885.91 841.29"></polygon>
    <polygon class="cls-79" points="968.02 889.17 956.25 945.37 887.4 905.81 893.29 877.73 899.17 849.61 968.02 889.17"></polygon>
    <polygon class="cls-77" points="658.5 583.23 659.99 584.08 1023.79 793.09 1032.86 749.79 667.57 539.93 658.5 583.23"></polygon>
    <g>
      <g>
        <g>
          <polygon class="cls-20" points="659.14 866.23 634.04 880.68 591.31 856.1 591.31 851.52 659.14 861.65 659.14 866.23"></polygon>
          <polygon class="cls-43" points="659.14 861.65 634.04 876.11 591.31 851.52 616.34 837 659.14 861.65"></polygon>
        </g>
        <g>
          <polygon class="cls-20" points="703.07 891.29 677.98 905.75 635.24 881.17 635.24 876.59 703.07 886.71 703.07 891.29"></polygon>
          <polygon class="cls-43" points="703.07 886.71 677.98 901.17 635.24 876.59 660.28 862.06 703.07 886.71"></polygon>
        </g>
        <g>
          <polygon class="cls-20" points="747.01 916.35 721.92 930.8 679.18 906.22 679.18 901.65 747.01 911.77 747.01 916.35"></polygon>
          <polygon class="cls-43" points="747.01 911.77 721.92 926.23 679.18 901.65 704.21 887.12 747.01 911.77"></polygon>
        </g>
        <g>
          <polygon class="cls-20" points="790.94 941.41 765.85 955.86 723.12 931.28 723.12 926.7 790.94 936.83 790.94 941.41"></polygon>
          <polygon class="cls-43" points="790.94 936.83 765.85 951.29 723.12 926.7 748.15 912.18 790.94 936.83"></polygon>
        </g>
        <g>
          <polygon class="cls-20" points="834.88 966.47 809.79 980.92 767.06 956.34 767.06 951.77 834.88 961.89 834.88 966.47"></polygon>
          <polygon class="cls-43" points="834.88 961.89 809.79 976.35 767.06 951.77 792.09 937.24 834.88 961.89"></polygon>
        </g>
        <g>
          <polygon class="cls-20" points="878.82 991.53 853.73 1005.98 810.99 981.4 810.99 976.83 878.82 986.95 878.82 991.53"></polygon>
          <polygon class="cls-43" points="878.82 986.95 853.73 1001.41 810.99 976.83 836.02 962.3 878.82 986.95"></polygon>
        </g>
        <g>
          <polygon class="cls-20" points="922.76 1016.59 897.67 1031.05 854.93 1006.46 854.93 1001.89 922.76 1012.01 922.76 1016.59"></polygon>
          <polygon class="cls-43" points="922.76 1012.01 897.67 1026.47 854.93 1001.89 879.96 987.36 922.76 1012.01"></polygon>
        </g>
      </g>
      <g>
        <g>
          <polygon class="cls-20" points="632.75 881.35 607.66 895.81 564.93 871.22 564.93 866.64 632.75 876.77 632.75 881.35"></polygon>
          <polygon class="cls-43" points="632.75 876.77 607.66 891.23 564.93 866.64 589.96 852.12 632.75 876.77"></polygon>
        </g>
        <g>
          <polygon class="cls-20" points="676.69 906.41 651.6 920.87 608.86 896.28 608.86 891.71 676.69 901.83 676.69 906.41"></polygon>
          <polygon class="cls-43" points="676.69 901.83 651.6 916.28 608.86 891.71 633.89 877.18 676.69 901.83"></polygon>
        </g>
        <g>
          <polygon class="cls-20" points="720.63 931.47 695.54 945.93 652.8 921.34 652.8 916.76 720.63 926.89 720.63 931.47"></polygon>
          <polygon class="cls-43" points="720.63 926.89 695.54 941.34 652.8 916.76 677.83 902.24 720.63 926.89"></polygon>
        </g>
        <g>
          <polygon class="cls-20" points="764.56 956.53 739.48 970.98 696.73 946.4 696.73 941.83 764.56 951.95 764.56 956.53"></polygon>
          <polygon class="cls-43" points="764.56 951.95 739.48 966.41 696.73 941.83 721.77 927.3 764.56 951.95"></polygon>
        </g>
        <g>
          <polygon class="cls-20" points="808.5 981.59 783.41 996.04 740.67 971.46 740.67 966.88 808.5 977.01 808.5 981.59"></polygon>
          <polygon class="cls-43" points="808.5 977.01 783.41 991.47 740.67 966.88 765.7 952.36 808.5 977.01"></polygon>
        </g>
        <g>
          <polygon class="cls-20" points="852.43 1006.65 827.35 1021.1 784.61 996.52 784.61 991.95 852.43 1002.07 852.43 1006.65"></polygon>
          <polygon class="cls-43" points="852.43 1002.07 827.35 1016.53 784.61 991.95 809.64 977.42 852.43 1002.07"></polygon>
        </g>
        <g>
          <polygon class="cls-20" points="896.37 1031.71 871.28 1046.16 828.55 1021.58 828.55 1017 896.37 1027.13 896.37 1031.71"></polygon>
          <polygon class="cls-43" points="896.37 1027.13 871.28 1041.59 828.55 1017 853.58 1002.48 896.37 1027.13"></polygon>
        </g>
      </g>
      <g>
        <g>
          <polygon class="cls-20" points="606.37 896.47 581.28 910.92 538.54 886.34 538.54 881.76 606.37 891.89 606.37 896.47"></polygon>
          <polygon class="cls-43" points="606.37 891.89 581.28 906.35 538.54 881.76 563.58 867.24 606.37 891.89"></polygon>
        </g>
        <g>
          <polygon class="cls-20" points="650.31 921.53 625.22 935.98 582.48 911.4 582.48 906.83 650.31 916.95 650.31 921.53"></polygon>
          <polygon class="cls-43" points="650.31 916.95 625.22 931.41 582.48 906.83 607.51 892.3 650.31 916.95"></polygon>
        </g>
        <g>
          <polygon class="cls-20" points="694.24 946.59 669.15 961.04 626.42 936.46 626.42 931.88 694.24 942.01 694.24 946.59"></polygon>
          <polygon class="cls-43" points="694.24 942.01 669.15 956.47 626.42 931.88 651.45 917.36 694.24 942.01"></polygon>
        </g>
        <g>
          <polygon class="cls-20" points="738.18 971.65 713.09 986.1 670.35 961.52 670.35 956.95 738.18 967.07 738.18 971.65"></polygon>
          <polygon class="cls-43" points="738.18 967.07 713.09 981.53 670.35 956.95 695.38 942.42 738.18 967.07"></polygon>
        </g>
        <g>
          <polygon class="cls-20" points="782.12 996.71 757.03 1011.16 714.29 986.58 714.29 982.01 782.12 992.13 782.12 996.71"></polygon>
          <polygon class="cls-43" points="782.12 992.13 757.03 1006.59 714.29 982.01 739.32 967.48 782.12 992.13"></polygon>
        </g>
        <g>
          <polygon class="cls-20" points="826.05 1021.77 800.96 1036.22 758.22 1011.64 758.22 1007.07 826.05 1017.19 826.05 1021.77"></polygon>
          <polygon class="cls-43" points="826.05 1017.19 800.96 1031.65 758.22 1007.07 783.26 992.54 826.05 1017.19"></polygon>
        </g>
        <g>
          <polygon class="cls-20" points="869.99 1046.83 844.9 1061.28 802.16 1036.7 802.16 1032.13 869.99 1042.25 869.99 1046.83"></polygon>
          <polygon class="cls-43" points="869.99 1042.25 844.9 1056.7 802.16 1032.13 827.2 1017.6 869.99 1042.25"></polygon>
        </g>
      </g>
      <g>
        <g>
          <polygon class="cls-20" points="579.99 911.59 554.9 926.04 512.16 901.46 512.16 896.88 579.99 907.01 579.99 911.59"></polygon>
          <polygon class="cls-43" points="579.99 907.01 554.9 921.46 512.16 896.88 537.2 882.36 579.99 907.01"></polygon>
        </g>
        <g>
          <polygon class="cls-20" points="623.93 936.65 598.84 951.1 556.1 926.52 556.1 921.94 623.93 932.07 623.93 936.65"></polygon>
          <polygon class="cls-43" points="623.93 932.07 598.84 946.52 556.1 921.94 581.13 907.42 623.93 932.07"></polygon>
        </g>
        <g>
          <polygon class="cls-20" points="667.86 961.71 642.77 976.16 600.03 951.58 600.03 947 667.86 957.13 667.86 961.71"></polygon>
          <polygon class="cls-43" points="667.86 957.13 642.77 971.58 600.03 947 625.07 932.48 667.86 957.13"></polygon>
        </g>
        <g>
          <polygon class="cls-20" points="711.8 986.77 686.71 1001.22 643.97 976.64 643.97 972.06 711.8 982.19 711.8 986.77"></polygon>
          <polygon class="cls-43" points="711.8 982.19 686.71 996.64 643.97 972.06 669 957.54 711.8 982.19"></polygon>
        </g>
        <g>
          <polygon class="cls-20" points="755.73 1011.83 730.65 1026.28 687.91 1001.7 687.91 997.12 755.73 1007.25 755.73 1011.83"></polygon>
          <polygon class="cls-43" points="755.73 1007.25 730.65 1021.7 687.91 997.12 712.94 982.6 755.73 1007.25"></polygon>
        </g>
        <g>
          <polygon class="cls-20" points="799.67 1036.89 774.58 1051.34 731.84 1026.76 731.84 1022.18 799.67 1032.31 799.67 1036.89"></polygon>
          <polygon class="cls-43" points="799.67 1032.31 774.58 1046.76 731.84 1022.18 756.88 1007.66 799.67 1032.31"></polygon>
        </g>
        <g>
          <polygon class="cls-20" points="843.61 1061.95 818.52 1076.4 775.78 1051.82 775.78 1047.24 843.61 1057.37 843.61 1061.95"></polygon>
          <polygon class="cls-43" points="843.61 1057.37 818.52 1071.82 775.78 1047.24 800.81 1032.72 843.61 1057.37"></polygon>
        </g>
      </g>
      <g>
        <g>
          <polygon class="cls-20" points="553.61 926.7 528.51 941.16 485.78 916.58 485.78 912 553.61 922.13 553.61 926.7"></polygon>
          <polygon class="cls-43" points="553.61 922.13 528.51 936.58 485.78 912 510.81 897.48 553.61 922.13"></polygon>
        </g>
        <g>
          <polygon class="cls-20" points="597.54 951.77 572.46 966.22 529.72 941.64 529.72 937.06 597.54 947.19 597.54 951.77"></polygon>
          <polygon class="cls-43" points="597.54 947.19 572.46 961.64 529.72 937.06 554.75 922.54 597.54 947.19"></polygon>
        </g>
        <g>
          <polygon class="cls-20" points="641.48 976.83 616.39 991.28 573.65 966.7 573.65 962.12 641.48 972.25 641.48 976.83"></polygon>
          <polygon class="cls-43" points="685.42 997.31 660.33 1011.76 573.65 962.12 598.68 947.6 685.42 997.31"></polygon>
        </g>
        <g>
          <polygon class="cls-20" points="685.42 1001.89 660.33 1016.34 616.39 991.28 617.59 987.18 685.42 997.31 685.42 1001.89"></polygon>
          <polygon class="cls-43" points="729.35 1022.36 704.26 1036.82 617.59 987.18 642.52 972.72 729.35 1022.36"></polygon>
        </g>
        <g>
          <polygon class="cls-20" points="729.35 1026.94 704.26 1041.4 660.33 1016.34 661.53 1012.24 729.35 1022.37 729.35 1026.94"></polygon>
          <polygon class="cls-43" points="729.35 1022.37 704.26 1036.82 661.53 1012.24 686.56 997.72 729.35 1022.37"></polygon>
        </g>
        <g>
          <polygon class="cls-20" points="773.29 1052 748.2 1066.46 705.46 1041.88 705.46 1037.3 773.29 1047.43 773.29 1052"></polygon>
          <polygon class="cls-43" points="773.29 1047.43 748.2 1061.88 705.46 1037.3 730.49 1022.78 773.29 1047.43"></polygon>
        </g>
        <g>
          <polygon class="cls-20" points="817.23 1077.06 792.14 1091.52 749.4 1066.94 749.4 1062.36 817.23 1072.49 817.23 1077.06"></polygon>
          <polygon class="cls-43" points="817.23 1072.49 792.14 1086.94 749.4 1062.36 774.43 1047.84 817.23 1072.49"></polygon>
        </g>
      </g>
    </g>
    <g>
      <polygon class="cls-20" points="668.69 1037.64 665.74 1039.32 614.4 1068.96 511.32 1009.51 508.43 1007.82 562.59 976.51 668.69 1037.64"></polygon>
      <polygon class="cls-43" points="665.74 1039.32 614.4 1068.96 511.32 1009.51 562.59 979.88 665.74 1039.32"></polygon>
    </g>
  </g>
  <g class="cls-48">
    <polygon class="cls-63" points="975.67 747.72 674.17 573.65 674.17 380.15 975.67 554.22 975.67 747.72"></polygon>
    <g>
      <path d="M730.62,529.97l-27.62-32.29v-2.23s27.62-2.28,27.62-2.28v5.67s-20.62,1.56-20.62,1.56v.15l20.62,23.78v5.63Z"></path>
      <path d="M779.93,563.24l-5.4-3.12v-24.73s-23.83-13.76-23.83-13.76v24.73s-5.4-3.12-5.4-3.12v-54.23s5.4,3.12,5.4,3.12v23.79s23.83,13.76,23.83,13.76v-23.79s5.4,3.12,5.4,3.12v54.23Z"></path>
      <path d="M819.25,537.46l-13.3-7.68v48.48s-5.4-3.12-5.4-3.12v-48.48s-13.27-7.66-13.27-7.66v-5.75l31.96,18.45v5.75Z"></path>
      <path d="M873.44,617.23l-5.36-3.1v-36.38c0-2.87,.15-6.3,.45-10.29l-.13-.07c-.51,2.15-.97,3.63-1.38,4.46l-15.74,32.59-2.63-1.52-15.71-50.44c-.45-1.47-.91-3.59-1.38-6.36l-.13-.07c.17,2.27,.26,5.86,.26,10.77v36.3s-5.2-3-5.2-3v-54.23s7.13,4.12,7.13,4.12l14.13,45.98c1.09,3.53,1.8,6.11,2.12,7.73l.19,.11c.92-2.44,1.66-4.24,2.22-5.38l14.42-29.34,6.75,3.89v54.23Z"></path>
      <path d="M909.45,638.01l-23.9-13.8v-54.23s5.4,3.12,5.4,3.12v48.48s18.5,10.68,18.5,10.68v5.75Z"></path>
      <path d="M946.84,638.46l-27.62,.39v-5.63s20.69,.14,20.69,.14v-.23l-20.69-25.41v-5.67s27.62,34.18,27.62,34.18v2.23Z"></path>
    </g>
  </g>
  <g class="cls-48">
    <polygon class="cls-47" points="1026.69 573.7 725.19 399.64 725.2 206.14 1026.7 380.21 1026.69 573.7"></polygon>
    <g>
      <path d="M818.24,370.83l-24.92-29.13v-2.01l24.92-2.05v5.12l-18.61,1.4v.14l18.61,21.45v5.08Z"></path>
      <path d="M859.77,397.09c-3.07,.14-6.9-1.12-11.48-3.76-5.91-3.41-10.65-8.39-14.2-14.92-3.55-6.53-5.33-13.44-5.33-20.72,0-7.82,2-12.99,6-15.51,4-2.51,9.07-2,15.21,1.55,3.94,2.28,7.21,4.83,9.8,7.67v6.11c-2.97-3.67-6.26-6.55-9.85-8.62-4.77-2.75-8.64-3.11-11.61-1.07-2.97,2.04-4.45,6.2-4.45,12.48s1.39,11.51,4.16,16.64c2.77,5.14,6.41,9.01,10.91,11.6,4.17,2.41,7.79,3.4,10.84,2.98v5.56Z"></path>
      <path d="M866.29,400.93v-6.76c.66,1.06,1.44,2.13,2.36,3.21,.92,1.08,1.88,2.09,2.9,3.05,1.01,.96,2.03,1.84,3.06,2.64,1.02,.8,1.97,1.45,2.84,1.95,2.99,1.73,5.23,2.37,6.71,1.91,1.48-.45,2.22-1.91,2.22-4.37,0-1.32-.25-2.61-.74-3.87-.49-1.26-1.17-2.55-2.04-3.86-.87-1.31-1.9-2.68-3.09-4.1-1.19-1.42-2.47-2.94-3.84-4.55-1.45-1.7-2.8-3.36-4.06-4.97-1.26-1.61-2.35-3.22-3.27-4.82-.93-1.6-1.66-3.24-2.19-4.9-.53-1.66-.8-3.4-.8-5.22,0-2.23,.42-3.93,1.25-5.1,.83-1.17,1.92-1.9,3.27-2.19,1.35-.29,2.89-.19,4.62,.28,1.73,.47,3.49,1.23,5.29,2.27,4.09,2.36,7.08,4.67,8.96,6.91v6.45c-2.45-3.42-5.6-6.24-9.45-8.46-1.06-.61-2.13-1.1-3.19-1.45-1.06-.35-2.01-.47-2.84-.36-.83,.11-1.51,.48-2.03,1.11-.52,.63-.78,1.62-.78,2.96,0,1.25,.2,2.45,.59,3.58,.4,1.14,.98,2.31,1.75,3.5,.77,1.2,1.72,2.47,2.83,3.81,1.11,1.35,2.39,2.86,3.84,4.54,1.49,1.72,2.9,3.45,4.23,5.17,1.33,1.72,2.5,3.46,3.51,5.2,1,1.74,1.8,3.48,2.39,5.23,.59,1.75,.88,3.54,.88,5.36,0,2.41-.4,4.22-1.2,5.43-.8,1.21-1.88,1.94-3.25,2.2-1.36,.26-2.93,.11-4.71-.45-1.78-.56-3.65-1.41-5.62-2.55-.66-.38-1.47-.91-2.43-1.59-.97-.68-1.95-1.43-2.96-2.25-1-.82-1.96-1.66-2.85-2.53-.9-.87-1.62-1.68-2.16-2.42Z"></path>
      <path d="M897.82,419.13v-6.75c.66,1.06,1.44,2.13,2.36,3.21,.92,1.08,1.88,2.09,2.9,3.05,1.01,.96,2.03,1.84,3.06,2.63,1.02,.8,1.97,1.44,2.84,1.95,2.99,1.73,5.23,2.37,6.71,1.91,1.48-.45,2.22-1.91,2.22-4.37,0-1.32-.25-2.61-.74-3.87-.49-1.26-1.17-2.55-2.04-3.86-.87-1.31-1.9-2.68-3.09-4.1-1.19-1.42-2.47-2.94-3.84-4.55-1.45-1.7-2.8-3.36-4.06-4.97-1.26-1.61-2.35-3.22-3.27-4.82-.93-1.6-1.66-3.24-2.19-4.9-.53-1.66-.8-3.4-.8-5.22,0-2.23,.42-3.93,1.25-5.1,.83-1.17,1.92-1.9,3.27-2.19,1.35-.29,2.89-.19,4.62,.28,1.73,.47,3.49,1.23,5.29,2.27,4.1,2.36,7.08,4.67,8.96,6.91v6.45c-2.45-3.42-5.6-6.24-9.45-8.46-1.06-.61-2.13-1.1-3.19-1.45-1.06-.35-2.01-.47-2.84-.36-.83,.11-1.51,.48-2.03,1.11-.52,.63-.78,1.62-.78,2.96,0,1.25,.2,2.45,.59,3.58,.4,1.14,.98,2.31,1.75,3.5,.77,1.2,1.72,2.47,2.83,3.81,1.11,1.35,2.39,2.86,3.84,4.54,1.49,1.72,2.9,3.45,4.23,5.17,1.33,1.72,2.5,3.46,3.51,5.2,1,1.74,1.8,3.48,2.39,5.23,.59,1.75,.88,3.54,.88,5.36,0,2.41-.4,4.22-1.2,5.43-.8,1.21-1.88,1.94-3.25,2.2-1.36,.26-2.93,.11-4.71-.45-1.78-.56-3.65-1.41-5.62-2.55-.66-.38-1.47-.91-2.43-1.59s-1.95-1.43-2.96-2.25c-1-.82-1.96-1.66-2.85-2.53-.9-.87-1.62-1.68-2.16-2.42Z"></path>
      <path d="M958.65,437.16l-24.92,.35v-5.08l18.66,.13v-.21l-18.66-22.92v-5.12l24.92,30.83v2.01Z"></path>
    </g>
  </g>
  <g>
    <path class="cls-24" d="M541.99,1601.64c27.67-.19,66.44-19.72,80.63-10.5,14.11,9.27,41.62,40.25-19.24,69.72-60.84,29.58-110.1,53.87-115.83,28.73-5.76-25.15,3.23-55.28,3.94-68.91,.66-13.69,30.2-18.74,50.5-19.04Z"></path>
    <path class="cls-24" d="M550.27,1636.01c-41.61,23.28-66.83-6.53-66.83-6.53,0,0-11.02-128.32-19.55-185.79-8.58-57.44-7.34-83.16-37.94-67.19-24.37,12.71-54.02,42.49-114.78,76.42v-212.34c45.27-13.7,138.65-45.25,187.76-52.61,73.46-10.94,79.87,43.19,75.79,176.02-3.79,124.04,9.34,230.46,9.34,230.46,0,0,4.92,20.02-33.79,41.57Z"></path>
    <polygon class="cls-41" points="503.89 1916 462.72 1939.78 257.42 1821.24 257.42 1801.48 503.89 1896.17 503.89 1916"></polygon>
    <polygon class="cls-41" points="257.38 1916 298.63 1939.78 503.89 1821.24 503.89 1801.48 257.38 1896.17 257.38 1916"></polygon>
    <polygon class="cls-40" points="503.89 1896.17 462.72 1919.98 257.42 1801.48 298.63 1777.67 503.89 1896.17"></polygon>
    <polygon class="cls-40" points="257.38 1896.17 298.63 1919.98 503.89 1801.48 462.68 1777.67 257.38 1896.17"></polygon>
    <path class="cls-41" d="M398.77,1841.45c0,10.05-8.1,18.13-18.12,18.13h0c-10.02,0-18.12-8.08-18.12-18.13v-299.27c0-9.97,8.11-18.06,18.12-18.06h0c10.01,0,18.12,8.09,18.12,18.06v299.27Z"></path>
    <g>
      <path class="cls-52" d="M69.7,1549.27h-.1l3.77-50.43,72.31-.08,172.68-99.72c11.48-6.59,30.06-6.59,41.51,0l171.9,99.31,80.49-.15-3.62,51.21h-.04c.11,4.51-2.7,8.92-8.56,12.3l-240.18,138.62c-11.45,6.62-30.03,6.62-41.51,0l-240.15-138.62c-5.9-3.38-8.7-7.95-8.5-12.44Z"></path>
      <path class="cls-13" d="M81.86,1509.66c-11.44-6.62-11.44-17.34,0-23.94l240.14-138.67c11.52-6.6,30.06-6.6,41.58,0l240.14,138.67c11.45,6.6,11.45,17.32,0,23.94l-240.14,138.65c-11.52,6.67-30.06,6.67-41.58,0l-240.14-138.65Z"></path>
    </g>
    <path class="cls-81" d="M102.86,1506.77c-5.01,0-9.07-4.06-9.07-9.07v-66.92c0-31.47,21.33-68.43,48.57-84.15l154.94-89.46c14.71-8.47,29-9.56,40.24-3.06,11.22,6.49,17.4,19.38,17.4,36.31v66.94c0,5.01-4.06,9.07-9.07,9.07s-9.07-4.06-9.07-9.07v-66.94c0-10.03-3.04-17.54-8.34-20.6-5.32-3.08-13.37-1.96-22.1,3.07l-154.94,89.46c-21.41,12.35-39.5,43.69-39.5,68.43v66.92c0,5.01-4.06,9.07-9.07,9.07Z"></path>
    <path class="cls-41" d="M198.67,1594.01c-22.06,9.06-42.68,12.2-60.98,10.04-19.11-2.25-35.61-10.4-48.54-23.89v-.06c-.21-.14-.31-.22-.42-.36,20.83,5.22,45.2,2.83,71.73-8.06l38.21,22.33Z"></path>
    <path class="cls-11" d="M428.28,927.32c11.73-5.97,31.35-27.69,45.12-42.2,13.8-14.56,34.31-31.06,48.71-38.09,14.47-7.01,24.93-10.11,27.11-10.05l2.17,.09s7.73-5.15,12.89-4.51c5.17,.62,7.53,1.32,7.53,1.32,0,0,2.41,.51,6.03,.94,3.61,.49,9.56,5.56,9.56,5.56,0,0,7.75-1.69,8.59,4.07,.84,5.78-23.98,21.22-39.12,33.02-15.2,11.86-45.3,39.68-44.38,44.81,.97,5.19,16.96,2.45,30.33-2.89,13.4-5.4,25.29-6.02,28.32-.2,2.95,5.76-15.74,23.65-41.03,26.13-25.28,2.52-50.98,21.15-62.43,15.72-11.45-5.32-26.13,.27-26.13,.27l-13.28-33.96Z"></path>
    <path class="cls-88" d="M374.75,966.85l52.05-41.42s17.13-1.5,24.22,13.47c8.5,17.89,15.25,26.61,15.25,26.61l-37.16,40.05-54.37-38.72Z"></path>
    <path class="cls-73" d="M631.26,1096.86s7.38-8.23,5.55-21.07c-1.9-12.87-3.52-25.31,9.12-55.42,12.65-30.13,18.76-53.39,24.1-50.94,5.27,2.41,12.57,6.15,5.69,26.52-6.95,20.36-7.77,24.85-5.31,25.63,2.42,.83,32.63-25.63,41.54-39.13,8.99-13.43,34.27-44.81,39.54-44.81s6.96,7.77,0,22.38c-6.95,14.68-25.24,39.98-25.24,39.98,0,0,38.7-43.22,44-47.7,5.27-4.49,20.8-5.36,4.5,18.76-16.29,24.01-35.47,44.05-35.47,44.05,0,0,43.2-43.27,48.89-39.53,5.72,3.63-18.34,29.62-26.9,41.68-8.57,12.09-15.87,18.2-15.87,18.2,0,0,34.21-28.94,38.69-26.47,4.5,2.39-21.97,34.65-31.39,43.56-9.35,8.98-32.97,33.41-46.84,39.6-13.84,6.04-39.55,42.36-39.55,42.36l-35.05-37.65Z"></path>
    <path class="cls-24" d="M687.41,1666.36c27.61-.29,66.46-19.81,80.6-10.54,14.19,9.22,41.65,40.09-19.24,69.69-60.82,29.5-110.06,53.86-115.83,28.65-5.76-25.09,3.23-55.22,3.94-68.91,.68-13.63,30.2-18.74,50.54-18.89Z"></path>
    <path class="cls-21" d="M177.73,1336.67c-27.74,87.13,1.28,128.24,32.25,136.31,30.93,8.23,34.49,11.1,34.49,11.1,0,0,71.42,84.01,169.2,40.04,97.83-44.04,140.05-69.95,170.6-85.9,30.56-15.86,37.79,20.07,33.89,75.22-4.04,57.94,10.7,180.72,10.7,180.72,0,0,25.23,29.7,66.81,6.47,38.74-21.57,33.85-41.51,33.85-41.51,0,0-8.29-108.81-6.67-232.91,1.62-124.17-29.07-178.56-102.55-167.6-73.53,10.97-203.27,48.4-207.33,56.55-4.08,8.14-235.24,21.51-235.24,21.51Z"></path>
    <path class="cls-73" d="M233.92,827.45c-9.37,35.44-13.83,56.23-24.44,58.7-10.6,2.44-17.14,2.44-17.14,2.44,0,0,11.04,39.91,69.67,43.64,58.68,3.66,70.11-5.7,70.11-5.7,0,0-8.3-27.02,0-51,8.35-23.96,14.29-30.53,14.29-30.53,0,0-40.36-33.42-67.67-30.97-27.25,2.38-44.82,13.42-44.82,13.42Z"></path>
    <path class="cls-11" d="M425.88,726.42c-10.59,30.16-16.32,54.54-18.36,75.35-2,20.84-24.87,49.69-46.85,53.83-22.01,4.02-32.63-17.93-32.63-17.93,0,0,23.25-104.13,48.89-116.36,25.7-12.23,48.95,5.11,48.95,5.11Z"></path>
    <path class="cls-60" d="M231.88,826.66c-.77-21.97-45.64-52.17-44.81-133.67,.85-81.47,48.88-132.01,135.26-117.34,86.41,14.66,124.9,61.9,119.43,114.47-5.48,52.62-24.87,49.35-30.55,50.16-5.7,.77-.43,19.12-6.54,24.42-6.11,5.28-7.33,51.32-14.24,44.43-6.96-6.91,6.1-41.13-.86-42.39-6.91-1.21-27.25,33.67-34.21,49.29-8.14,18.35-21.17,50.11-65.98,46.12-44.85-4.08-56.65-11.88-57.5-35.48Z"></path>
    <path class="cls-72" d="M183.84,867.19c-46.84-3.31-85.17,69.25-57.45,167.03,27.75,97.83,44.04,116.15,47.7,173.63,3.64,57.44,3.64,87.36,4.28,105.13,.59,17.69-15.73,52.95-15.73,52.95,0,0,54.01,68.55,152.59,88.44,125.48,25.28,134.4-76.02,128.22-130.87-5.13-45.47,18.76-71.66-4.07-105.05-22.84-33.42-38.33-58.72-40.75-70.11-2.46-11.44,1.63-79.08,28.52-114.91,26.87-35.89,39.13-28.49,39.13-28.49,0,0-104.37-85.65-167.11-114.92-62.75-29.35-115.33-22.82-115.33-22.82Z"></path>
    <path class="cls-15" d="M466.27,1004.93c34.69,33.36,50.5,131.13,61.11,159.69,10.61,28.55,39.12,12.24,61.95-19.58,22.82-31.75,42.79-62.51,42.79-62.51,0,0,17.12,6.44,30.15,24.43,13.03,17.92,14.69,30.98,14.69,30.98,0,0-54.19,85.34-88.46,135.08-34.21,49.73-68.45,82.32-98.59,40.73-30.17-41.58-39.92-72.04-39.92-72.04,0,0-57.89-67.32-59.48-120.25-1.66-52.98,54.56-136.99,75.77-116.53Z"></path>
    <path class="cls-81" d="M339.14,1641.86c-5.01,0-9.07-4.06-9.07-9.07v-66.95c0-31.46,21.32-68.41,48.54-84.12l154.98-89.42c14.68-8.48,28.95-9.58,40.19-3.1,11.23,6.48,17.41,19.38,17.41,36.31v66.94c0,5.01-4.06,9.07-9.07,9.07s-9.07-4.06-9.07-9.07v-66.94c0-10.03-3.04-17.54-8.34-20.6-5.31-3.06-13.34-1.93-22.04,3.09l-154.99,89.42c-21.39,12.35-39.47,43.68-39.47,68.41v66.95c0,5.01-4.06,9.07-9.07,9.07Z"></path>
    <g>
      <path class="cls-52" d="M67.11,958.98l40.95-19.88h.03c3.32-2.04,8.04-1.83,13.24,1.16l213.07,123.03c10.18,5.89,18.44,20.22,18.44,31.97v246.03c0,6.04-2.25,10.25-5.77,12.01v.13l-40.38,19.41-32.13-55.5-153.22-88.43c-10.18-5.89-18.43-20.23-18.43-31.94v-176.09l-35.79-61.89Z"></path>
      <path class="cls-13" d="M311.17,1361.54c0,11.8-8.21,16.48-18.39,10.63l-213.1-123.04c-10.19-5.89-18.4-20.16-18.4-31.87v-246.11c0-11.74,8.22-16.51,18.4-10.62l213.1,123.07c10.18,5.88,18.39,20.08,18.39,31.89v246.06Z"></path>
      <path class="cls-89" d="M258.04,1302.04c0,7.51-5.29,10.53-11.82,6.8l-136.94-79.02c-6.53-3.8-11.83-12.92-11.83-20.52v-158.11c0-7.49,5.3-10.59,11.83-6.8l136.94,79.08c6.53,3.79,11.82,12.94,11.82,20.45v158.11Z"></path>
    </g>
    <path class="cls-41" d="M157.5,1247.95c23.14-26.72,41.18-50.72,41.18-50.72l-38.21-22.38C69.99,1240.27,0,1369.89,0,1478.05c0,57.02,19.45,97.49,51.16,117.43l.03,.09,35.09,20.28s-1.76-3.22-4.46-8.47c12.05,2.21,25.04,2.51,38.87,.41,5.54-.92,11.23-2.14,17-3.73-19.11-2.25-35.61-10.4-48.54-23.89v-.06c-.21-.14-.31-.22-.42-.36-9.13-2.29-17.63-6.17-25.21-11.36-5.12-11.9-9.77-24.1-12.34-34.36-7.86-31.34-5.3-103.67,22.24-166.68,27.54-63.07,60.9-92.7,84.07-119.4Z"></path>
    <path class="cls-40" d="M198.67,1221.38v-24.15c-90.61,65.37-160.57,195-160.57,303.17,0,17.91,1.92,34.17,5.47,48.66,5.97,23.6,16.26,42.7,30.2,56.47,29.15,28.79,73.72,34.79,124.9,12.8v-24.3c-22.06,9.06-42.68,12.2-60.98,10.04-19.11-2.25-35.61-10.4-48.54-23.89v-.06c-.21-.14-.31-.22-.42-.36-18.75-19.81-29.88-50.93-29.88-91.37,0-94.83,60.73-208.26,139.82-266.99Z"></path>
    <path class="cls-9" d="M187.07,623.15c6.19,4-26.26,39.26-5.19,85.55,8.17,18.02,23.16-13.99,35.05-4.9,11.94,9.12,18.26,24.78,21.06,34.84,2.82,10.08,60.87-15.19,90.05-4.67,29.21,10.54,80.25-2.11,81.77,7.1,1.47,9.25,7.46,13.45,16.07,5.04,8.58-8.4,19.07-36.32,19.07-36.32,0,0,5.65,24.19-2.7,34.74l-8.32,10.47s22.61-3.63,22.61-29.41-2.11-45.78,0-53.14c2.1-7.37,12.1,11.61,11.06,34.71-1.07,23.2,12.74,32.87,10.81,10.63-1.89-22.17-4.71-104.44-48.88-131.83-44.21-27.35-91.95-34.35-137.54-32.94-45.59,1.42-65.25,4.93-59.62,12.62,5.61,7.76,34.34-8.45,51.9-4.92,17.56,3.52-13.47,7.83-40.31,12.38-26.83,4.62-56.3,15.7-64.2,37.27-7.91,21.57-18.96,53.62-13.17,52.07,5.8-1.55,15.38-42.56,20.47-39.26Z"></path>
  </g>
  <g>
    <path class="cls-54" d="M1103.46,1165.27l-3.9-2.25s-.02-.01-.03-.02l-78.15-45.11c-4.69-2.71-12.29-2.71-16.98,0l-161.2,93.08c-4.69,2.7-4.69,7.1,0,9.8l3.91,2.26s.01,0,.02,.01l78.15,45.13c4.69,2.7,12.29,2.7,16.98,0l161.2-93.08c4.69-2.71,4.69-7.1,0-9.81Z"></path>
    <path class="cls-27" d="M840.96,1202.7c-4.49,2.59-2.96,13.47,1.52,16.06l74.68,43.12c4.48,2.58,11.75,2.58,16.24,0l154.05-88.94c4.48-2.58,5.37-13.98,.89-16.56l-75.57-35.93c-4.48-2.59-11.75-2.59-16.24,0l-155.57,82.25Z"></path>
    <path class="cls-64" d="M842.48,1201.62c-4.48,2.58-4.48,6.78,0,9.36l74.68,43.12c4.48,2.58,11.75,2.58,16.24,0l154.05-88.94c4.48-2.59,4.48-6.79,0-9.38l-74.68-43.11c-4.48-2.59-11.75-2.59-16.24,0l-154.05,88.95Z"></path>
    <path class="cls-57" d="M1087.99,1160.47c0,.67-.73,1.53-1.94,2.27l-31.65,18.23-21.24,12.29-40.2,23.18-60.97,35.26c-1.74,1-4.14,1.54-6.68,1.54s-5.01-.53-6.75-1.54l-74.66-43.15c-1.2-.66-1.94-1.53-1.94-2.27,0-.66,.74-1.53,1.94-2.27l13.62-7.88,21.04-12.09,20.5-11.88,98.91-57.04c1.67-1,4.14-1.6,6.68-1.6s5.01,.6,6.74,1.6l74.67,43.08c1.21,.74,1.94,1.6,1.94,2.27Z"></path>
    <path class="cls-6" d="M1088,1160.47c0,.7-.76,1.56-1.97,2.25l-31.61,18.26-155.33-8.81,98.85-57.06c1.73-1,4.17-1.57,6.71-1.57s4.99,.57,6.71,1.57l74.68,43.12c1.21,.69,1.97,1.56,1.97,2.24Z"></path>
    <polygon class="cls-6" points="1033.16 1193.25 992.96 1216.43 857.52 1196.13 878.56 1184.04 1033.16 1193.25"></polygon>
    <path class="cls-76" d="M998.66,1152.19l-4.44,2.56c-3.67-1.25-7.59-2.17-11.61-2.77v-3.63c0-.96-1.35-1.74-3.01-1.74h-16.96c-1.66,0-3.01,.78-3.01,1.74v3.63c-4.03,.6-7.94,1.52-11.61,2.77l-4.44-2.56c-1.18-.68-3.09-.68-4.26,0l-11.99,6.92c-1.18,.68-1.18,1.78,0,2.46l4.44,2.56c-2.16,2.12-3.75,4.38-4.8,6.71h-6.29c-1.66,0-3.01,.78-3.01,1.74v9.79c0,.96,1.35,1.74,3.01,1.74h6.29c1.04,2.32,2.64,4.58,4.8,6.71l-4.44,2.56c-1.18,.68-1.18,1.78,0,2.46l11.99,6.92c1.18,.68,3.09,.68,4.26,0l4.44-2.56c3.67,1.25,7.59,2.17,11.61,2.77v3.63c0,.96,1.35,1.74,3.01,1.74h16.96c1.66,0,3.01-.78,3.01-1.74v-3.63c4.03-.6,7.94-1.52,11.61-2.77l4.44,2.56c1.18,.68,3.09,.68,4.26,0l11.99-6.92c1.18-.68,1.18-1.78,0-2.46l-4.44-2.56c2.16-2.12,3.75-4.38,4.8-6.71h6.29c1.66,0,3.01-.78,3.01-1.74v-9.79c0-.96-1.35-1.74-3.01-1.74h-6.29c-1.04-2.32-2.64-4.58-4.8-6.71l4.44-2.56c1.18-.68,1.18-1.78,0-2.46l-11.99-6.92c-1.18-.68-3.09-.68-4.26,0Zm-11.61,34.49c-8.8,5.08-23.07,5.08-31.88,0-8.8-5.08-8.8-13.32,0-18.4,8.8-5.08,23.07-5.08,31.88,0,8.8,5.08,8.8,13.32,0,18.4Z"></path>
  </g>
  <g>
    <path class="cls-78" d="M1595.62,1640.26v9.7l.05,224.34c4.81,0,9.62-1.06,13.3-3.19l175.42-101.29c3.65-2.1,5.53-4.89,5.53-7.7l27.67-248.62c-.53,2.67-2.57,5.24-6.14,7.29l-200.59,115.8c-4.22,2.45-9.71,3.66-15.24,3.66Z"></path>
    <path class="cls-36" d="M1373.73,1513.62c.59,2.64,2.65,5.14,6.11,7.17l200.54,115.8c4.23,2.45,9.72,3.66,15.23,3.66s11.01-1.22,15.24-3.66l200.59-115.8c3.57-2.04,5.61-4.62,6.14-7.29v-.06l.16-1.43c0-3.19-2.08-6.35-6.3-8.81l-200.59-115.79c-8.4-4.85-22.05-4.85-30.47,0l-200.54,115.79c-4.89,2.86-6.95,6.71-6.11,10.42Z"></path>
    <path class="cls-25" d="M1401.55,1513.42c.52,2.31,2.31,4.5,5.34,6.27l175.42,101.3c3.68,2.14,8.48,3.2,13.32,3.2s9.63-1.06,13.32-3.2l175.46-101.3c3.11-1.78,4.89-4.04,5.37-6.38v-.04l.13-1.26c0-2.79-1.83-5.57-5.51-7.7l-175.46-101.3c-7.34-4.22-19.29-4.22-26.64,0l-175.42,101.3c-4.29,2.5-6.07,5.86-5.34,9.12Z"></path>
    <path class="cls-74" d="M1373.56,1513.5l27.79,248.62c0,2.8,1.85,5.6,5.52,7.7l175.45,101.29c3.69,2.14,8.49,3.19,13.35,3.19l-.05-224.34v-9.7c-5.51,0-11-1.22-15.23-3.66l-200.54-115.8c-3.47-2.03-5.52-4.53-6.11-7.17l-.17-.11Z"></path>
    <path class="cls-55" d="M1595.67,1512.01s-8.31-138.27-139.63-138.27h42.4c17.07,0,35.79-53.6-89.03-53.6,0,0-45.45-2.78,18.13-12.09,63.6-9.31-101.78-108.04-232.07-49.09,0,0-27.92,69.28,72.39,81.69,100.29,12.41-16.55,12.41-41.37,2.59-24.81-9.84-17.06,37.73,31.55,58.93,48.59,21.2,91.46,23.79,115.52,23.79s-10.07,11.88-59.69,6.71c-49.63-5.16-67.72-18.6-67.72-18.6,0,0,109.08,99.78,189.73,88.93,80.66-10.87,159.79,9.02,159.79,9.02Z"></path>
    <path class="cls-68" d="M1604.85,1529.85c-.25,0-.49-.1-.65-.31-.48-.59-49.11-59.91-120.08-121.23-65.45-56.56-163.83-126.44-260.83-138.17-.46-.05-.79-.48-.74-.94,.05-.46,.46-.8,.94-.74,97.42,11.78,196.12,81.86,261.75,138.59,71.07,61.42,119.78,120.83,120.26,121.42,.3,.36,.24,.89-.12,1.19-.16,.13-.35,.19-.53,.19Z"></path>
    <path class="cls-68" d="M1389.42,1460.48c-15.81,0-32.97-1.24-51.38-4.24-.46-.07-.77-.51-.7-.97,.07-.46,.52-.77,.97-.7,106.46,17.33,170.92-24.29,171.56-24.71,.39-.26,.92-.15,1.17,.24,.26,.39,.15,.91-.24,1.17-.53,.35-45.2,29.21-121.38,29.21Z"></path>
    <path class="cls-68" d="M1455.94,1384.62c-.13,0-.26-.03-.39-.09-.41-.21-.58-.72-.36-1.14,.15-.3,15.05-30.14-9.64-61.89-.29-.37-.22-.9,.15-1.18,.37-.29,.9-.22,1.18,.15,25.37,32.63,9.96,63.39,9.81,63.7-.15,.29-.45,.46-.75,.46Z"></path>
    <path class="cls-68" d="M1310.9,1374.69c-13.87,0-28.86-1.38-44.77-4.8-.46-.1-.75-.55-.65-1,.1-.46,.56-.74,1-.65,82.92,17.81,141.03-20.02,141.61-20.4,.39-.26,.92-.15,1.17,.24,.26,.39,.15,.91-.23,1.17-.47,.31-39.05,25.45-98.14,25.45Z"></path>
    <path class="cls-68" d="M1334.88,1305.66c-.44,0-.82-.35-.84-.79-.02-.39-2.78-39.42-36.09-57.59-.41-.22-.56-.74-.34-1.15,.22-.41,.73-.56,1.15-.34,34.14,18.63,36.94,58.57,36.96,58.97,.03,.47-.33,.87-.79,.89-.02,0-.04,0-.05,0Z"></path>
    <path class="cls-68" d="M1227.96,1297.39c-7.02,0-14.35-.86-21.73-2.98-.45-.13-.71-.6-.58-1.05,.13-.45,.6-.71,1.05-.58,36.81,10.62,72.58-11.1,72.93-11.33,.4-.25,.92-.12,1.16,.27,.25,.4,.12,.92-.27,1.16-.29,.18-23.84,14.5-52.56,14.5Z"></path>
    <path class="cls-23" d="M1599.05,1512.13s46.51-143.45-12.43-248.91c0,0-9.32-12.08-9.32,34.29s7.77-38.95-52.73-99.43c-60.49-60.49-139.59-80.66-139.59-80.66,0,0-40.5,140.7,31.01,180.09,0,0,14.47,19.82-27.92,0-42.38-19.82,29.21,64.97,99.92,96,0,0,12.79,23.26-24.43,6.46-37.22-16.8-8.22,75.69,135.48,112.16Z"></path>
    <path class="cls-68" d="M1604.85,1537.83c-.42,0-.78-.31-.84-.73-.07-.57-7.73-57.66-36.51-133.7-26.55-70.16-77.03-171.26-166.7-254.46-.34-.32-.36-.85-.05-1.19,.32-.34,.85-.36,1.19-.05,89.93,83.44,140.53,184.8,167.15,255.15,28.84,76.22,36.51,133.47,36.59,134.04,.06,.46-.27,.89-.73,.95-.04,0-.07,0-.11,0Z"></path>
    <path class="cls-68" d="M1568.94,1450.56c-15.52,0-43.19-5.7-83.39-34.76-.38-.27-.46-.8-.19-1.18,.27-.38,.8-.46,1.18-.19,64,46.25,96.34,32.38,96.66,32.23,.42-.19,.92,0,1.12,.42,.19,.42,0,.92-.42,1.12-.51,.23-5.46,2.36-14.95,2.36Z"></path>
    <path class="cls-68" d="M1557.38,1376.71c-.34,0-.67-.21-.79-.55-.16-.44,.06-.92,.5-1.08h0c.26-.1,25.61-10.71,25.61-93.64,0-.47,.38-.84,.84-.84s.84,.38,.84,.84c0,84.4-25.62,94.82-26.71,95.22-.1,.04-.2,.05-.29,.05Z"></path>
    <path class="cls-68" d="M1523.61,1315.61c-17.54,0-81.22-3.65-122.88-54.04-.3-.36-.25-.89,.11-1.19,.35-.3,.89-.25,1.19,.11,47.89,57.92,125.28,53.39,126.07,53.33,.52-.02,.87,.32,.9,.79s-.32,.87-.78,.9c-.11,0-1.75,.1-4.6,.1Z"></path>
    <path class="cls-68" d="M1482.33,1241.58c-.21,0-.42-.08-.59-.24-.33-.32-.34-.86-.02-1.19,.15-.16,15.12-16.53-.2-65.74-.14-.44,.11-.92,.56-1.06,.44-.14,.92,.11,1.06,.56,15.66,50.32,.45,66.74-.2,67.42-.16,.17-.38,.26-.6,.26Z"></path>
    <path class="cls-17" d="M1610.26,1439.85s-95.02-116.79,2.83-253.27c0,0-55.71,74.45-55.71,10.87s75.91-223.38,261.32-231.13c185.38-7.73,93.88,133.4,13.22,195.44l73.41-15.51s-15.76,211.87-295.07,293.61Z"></path>
    <path class="cls-68" d="M1613.09,1498.24c-.43,0-.8-.33-.84-.77-.09-1.02-8.56-102.8,20.83-214.83,17.27-65.83,44.04-122.27,79.56-167.76,44.43-56.89,102.74-96.7,173.31-118.34,.45-.14,.92,.11,1.05,.56,.14,.45-.11,.92-.56,1.05-159.06,48.76-224.68,181.83-251.72,284.87-29.33,111.75-20.88,213.29-20.79,214.3,.04,.46-.3,.87-.77,.92-.03,0-.05,0-.08,0Z"></path>
    <path class="cls-39" d="M1616.45,1378.69c-.4,0-.76-.29-.83-.7-.08-.46,.22-.9,.68-.98,1.04-.19,105.45-19.88,205.27-139.76,.3-.36,.83-.41,1.19-.11,.36,.3,.41,.83,.11,1.19-100.25,120.38-205.23,140.16-206.28,140.34-.05,0-.1,.01-.15,.01Z"></path>
    <path class="cls-68" d="M1630.28,1298.22c-.35,0-.68-.22-.8-.57-.48-1.43-47.64-144.14,.08-222.15,.24-.4,.76-.52,1.16-.28,.4,.24,.52,.76,.28,1.16-47.31,77.34-.4,219.31,.08,220.73,.15,.44-.09,.92-.53,1.07-.09,.03-.18,.04-.27,.04Z"></path>
    <path class="cls-68" d="M1661.24,1230.71c-6.88,0-10.4-.76-10.54-.79-.45-.11-.73-.56-.63-1.01,.1-.46,.55-.74,1.02-.63,.55,.13,56.41,12.01,166.39-63.08,.38-.26,.91-.16,1.17,.22,.26,.39,.16,.91-.22,1.17-83.47,57-136.11,64.12-157.19,64.12Z"></path>
    <path class="cls-68" d="M1711.85,1118.14s-.05,0-.08,0c-.46-.04-.81-.45-.76-.92,.08-.9,8.57-90.11,49.79-131.33,.33-.33,.86-.33,1.19,0,.33,.33,.33,.87,0,1.19-40.8,40.79-49.22,129.4-49.3,130.29-.04,.44-.41,.77-.84,.77Z"></path>
    <path class="cls-68" d="M1848.56,1065.29c-44.65,0-63.76-17.95-64.01-18.19-.33-.33-.34-.86-.02-1.19,.33-.33,.86-.34,1.19-.02,.34,.33,34.57,32.34,119.38,9.53,.46-.13,.91,.15,1.03,.6,.12,.45-.15,.91-.6,1.03-22.36,6.01-41.26,8.24-56.98,8.24Z"></path>
    <path class="cls-33" d="M1606.62,1496.7s147.34-32.1,208.76-136.14c0,0,5.76-14.14-34.31,9.22-40.05,23.37,37.54-12.92,59.31-95.63,21.8-82.75-.63-161.22-.63-161.22,0,0-141.95,35.89-139.94,117.51,0,0-9.83,22.5-14.08-24.12-4.24-46.6-41.42,57.96-32.59,134.67,0,0-13.66,22.77-17.89-17.85-4.24-40.61-69.53,31.03-28.64,173.55Z"></path>
    <path class="cls-68" d="M1595.62,1544.16c-.11,0-.21-.02-.32-.06-.43-.18-.64-.67-.46-1.1,1.25-3.07,126.64-308.14,226.91-377.79,.38-.26,.91-.17,1.17,.21,.27,.38,.17,.91-.21,1.17-99.86,69.36-225.05,373.97-226.31,377.04-.13,.33-.45,.52-.78,.52Z"></path>
    <path class="cls-39" d="M1621.22,1485.25c-.4,0-.75-.28-.83-.69-.09-.46,.22-.9,.67-.98,.66-.12,67.32-13.13,156.08-74.34,.38-.26,.91-.17,1.17,.22,.26,.38,.17,.91-.22,1.17-89.08,61.43-156.06,74.48-156.73,74.61-.05,0-.1,.01-.16,.01Z"></path>
    <path class="cls-68" d="M1661.41,1400.69c-.4,0-.75-.28-.83-.69-.13-.72-12.93-72.32,5.45-124.6,.16-.44,.64-.67,1.08-.52,.44,.15,.67,.64,.52,1.08-18.24,51.85-5.52,123.02-5.39,123.73,.08,.46-.22,.9-.68,.98-.05,0-.1,.01-.15,.01Z"></path>
    <path class="cls-68" d="M1735.12,1325.08c-21.82,0-29.25-7.59-29.76-8.15-.32-.34-.29-.88,.05-1.19,.34-.31,.87-.3,1.19,.05,.26,.28,22.73,22.7,105.61-11.75,.43-.18,.93,.02,1.1,.45,.18,.43-.02,.92-.46,1.1-36.36,15.11-61.19,19.48-77.74,19.48Z"></path>
    <path class="cls-68" d="M1753.63,1241.58c-.34,0-.67-.21-.79-.55-.15-.41-14.83-41.86,19.03-75.73,.33-.33,.86-.33,1.19,0,.33,.33,.33,.86,0,1.19-33.08,33.08-18.79,73.55-18.64,73.95,.16,.44-.06,.92-.5,1.08-.1,.04-.19,.05-.29,.05Z"></path>
    <path class="cls-75" d="M1595.67,1512.01s18.46-179.42,110.18-194.67c1.1-.17,2.23-.33,3.35-.48,0,0,10.69,19.64,0,43.42-10.7,23.8,74.05-126.85,209.81-62.9,0,0,14.82,9.15-24.69,40.17-39.49,31.02,59.26-49.35,141.55,37.37l82.28,86.71s-71.61,87.9-147.29,38.27c-75.7-49.64-79.55-42.49-70.76-31.44,8.8,11.06,59.24,45.05,59.24,45.05,0,0-103.68,44.29-153.87-35.34,0,0-1.65,13.81,26.33,35.34,27.97,21.54-123.6-81.65-236.13-1.5Z"></path>
    <path class="cls-68" d="M1590.72,1526.62c-.17,0-.34-.05-.49-.16-.38-.27-.47-.8-.2-1.18,.46-.65,47.25-65.56,127.47-108.98,47.14-25.51,96.43-38.73,146.51-39.3,62.58-.62,126.56,18.48,190.14,57,.4,.24,.53,.76,.29,1.16-.24,.4-.76,.53-1.16,.28-143.33-86.84-261.24-57.55-334.91-17.69-79.9,43.23-126.49,107.85-126.95,108.5-.16,.23-.42,.35-.69,.35Z"></path>
    <path class="cls-68" d="M1643.92,1469.94s-.05,0-.07,0c-.46-.04-.81-.45-.77-.91,.08-.87,8.04-87.84,46.05-125.89,.33-.33,.87-.33,1.19,0,.33,.33,.33,.86,0,1.19-37.58,37.61-45.49,123.97-45.57,124.84-.04,.44-.41,.77-.84,.77Z"></path>
    <path class="cls-68" d="M1860.35,1480.56s-.08,0-.12,0c-90.75-13.33-138.82-64.35-139.29-64.86-.32-.34-.3-.88,.05-1.19,.34-.32,.88-.3,1.19,.05,.47,.51,48.17,51.1,138.3,64.34,.46,.07,.78,.5,.71,.96-.06,.42-.42,.72-.83,.72Z"></path>
    <path class="cls-68" d="M1802.97,1385.77s-.05,0-.07,0c-.46-.04-.81-.44-.78-.91,.05-.65,1.39-16.1,14.15-33.69,11.74-16.18,35.79-37.17,83.74-45.23,.46-.08,.89,.23,.97,.69,.08,.46-.23,.9-.69,.97-90.59,15.23-96.44,76.76-96.49,77.38-.04,.44-.41,.78-.84,.78Z"></path>
    <path class="cls-68" d="M1967.37,1469.94c-.12,0-.24-.02-.35-.08-42.22-19.23-56.55-42.55-61.14-58.72-5-17.61,0-30.46,.22-31,.17-.43,.66-.64,1.1-.47,.43,.17,.64,.66,.47,1.1-.05,.13-5.02,12.93-.14,30.02,4.52,15.8,18.62,38.61,60.19,57.54,.42,.19,.61,.69,.42,1.12-.14,.31-.45,.49-.77,.49Z"></path>
    <path class="cls-68" d="M2049.06,1397.87c-.12,0-.24-.02-.36-.08-52.95-24.68-72.73-.49-72.93-.25-.29,.37-.82,.43-1.19,.15-.37-.29-.43-.81-.15-1.18,.2-.26,20.71-25.54,74.97-.25,.42,.2,.61,.7,.41,1.12-.14,.31-.45,.49-.76,.49Z"></path>
    <path class="cls-29" d="M1595.67,1512.01s98.21-97.99,158.69,0c0,0,26.37,31.3-28.42,18.89-54.8-12.4,5.68,7.75,29.98,16.03,24.31,8.28,59.72,97.47-21.71,146.96,0,0-14.08,12.28-27.58-21.85-13.53-34.11-13.64,20.17,0,43.43,13.61,23.27-150.78,129.52-125.2-27.14,0,0-14.73,35.68-14.73,51.19s-76-71.35-17.06-130.29c0,0,.77-20.5-26.37,14.94-27.15,35.46-45.87-128.49,72.41-112.17Z"></path>
    <path class="cls-68" d="M1627.18,1734.67c-.35,0-.68-.22-.8-.57-55-161.08-47.52-205.93-38.16-218.33,3.58-4.75,7.32-4.61,7.49-4.6,.46,.02,.82,.42,.8,.89-.02,.45-.4,.8-.84,.8h-.04c-.09,0-3.11-.06-6.16,4.06-9.06,12.26-16.11,56.7,38.51,216.65,.15,.44-.08,.92-.53,1.07-.09,.03-.18,.05-.27,.05Z"></path>
    <path class="cls-68" d="M1686.11,1704.93c-.34,0-.65-.2-.78-.53-26.32-65.82-84.63-57.66-85.21-57.57-.46,.07-.89-.25-.96-.71-.07-.46,.25-.89,.71-.96,.61-.1,60.23-8.44,87.04,58.61,.17,.43-.04,.92-.47,1.1-.1,.04-.21,.06-.31,.06Z"></path>
    <path class="cls-68" d="M1550.14,1704.93c-.39,0-.75-.28-.83-.68-11.84-58.68,36.92-113.07,37.42-113.61,.31-.35,.85-.37,1.19-.06,.35,.31,.37,.85,.06,1.19-.49,.54-48.68,54.31-37.01,112.14,.09,.46-.2,.9-.66,.99-.05,.01-.11,.02-.17,.02Z"></path>
    <path class="cls-68" d="M1735.23,1625.02c-.31,0-.61-.17-.75-.46-21.75-43.12-61.78-59.44-91.54-65.54-32.3-6.62-59.76-2.98-60.04-2.94-.46,.07-.89-.26-.95-.72-.06-.46,.26-.89,.72-.95,.28-.04,28.03-3.72,60.61,2.96,30.12,6.18,70.65,22.72,92.7,66.43,.21,.42,.04,.92-.37,1.13-.12,.06-.25,.09-.38,.09Z"></path>
    <path class="cls-68" d="M1514.73,1594.95c-.1,0-.2-.02-.3-.06-.44-.17-.66-.65-.49-1.09,21.63-56.79,69.37-65.55,69.85-65.63,.45-.07,.9,.23,.97,.69,.08,.46-.23,.9-.69,.97-.47,.08-47.28,8.71-68.56,64.57-.13,.34-.45,.54-.79,.54Z"></path>
    <path class="cls-68" d="M1735.23,1562.4c-.22,0-.43-.08-.6-.25-72.12-72.11-146.22-42.96-146.96-42.66-.43,.18-.92-.03-1.1-.46-.18-.43,.03-.92,.46-1.1,.19-.08,19.13-7.67,46.8-6.14,25.51,1.42,63.92,11.1,101.99,49.17,.33,.33,.33,.86,0,1.19-.16,.16-.38,.25-.6,.25Z"></path>
  </g>
  <g class="cls-4">
    <polygon class="cls-14" points="1478.74 763.31 1377.38 704.79 1377.39 587.75 1478.74 646.27 1478.74 763.31"></polygon>
    <path class="cls-38" d="M1466.88,687.3l-2.62-1.51c-.89-4.57-2.28-9.2-4.09-13.76l1.86-1.07c.84-.49,.84-2.07,0-3.53l-9.97-17.27c-.84-1.46-2.21-2.25-3.06-1.77l-1.86,1.07c-3.04-3.84-6.35-7.36-9.87-10.42v-3.02c0-1.38-.97-3.06-2.16-3.75l-14.1-8.14c-1.19-.69-2.16-.13-2.16,1.25v3.02c-3.51-1-6.83-1.31-9.87-.97l-1.86-3.21c-.84-1.46-2.21-2.25-3.06-1.77l-9.97,5.76c-.84,.49-.84,2.07,0,3.53l1.86,3.21c-1.81,2.46-3.2,5.49-4.09,9.03l-2.62-1.51c-1.19-.69-2.16-.13-2.16,1.25v16.28c0,1.38,.97,3.06,2.16,3.75l2.62,1.51c.89,4.57,2.28,9.2,4.09,13.76l-1.86,1.07c-.84,.49-.84,2.07,0,3.53l9.97,17.27c.84,1.46,2.21,2.25,3.06,1.77l1.85-1.07c3.04,3.84,6.35,7.36,9.87,10.42v3.02c0,1.38,.97,3.06,2.16,3.75l14.1,8.14c1.19,.69,2.16,.13,2.16-1.25v-3.02c3.51,1,6.83,1.31,9.87,.97l1.86,3.21c.84,1.46,2.21,2.25,3.06,1.77l9.97-5.76c.84-.49,.84-2.07,0-3.53l-1.86-3.21c1.81-2.46,3.2-5.49,4.09-9.03l2.62,1.51c1.19,.69,2.16,.13,2.16-1.25v-16.28c0-1.38-.97-3.06-2.16-3.75Zm-38.82,10.36c-10.59-6.11-19.17-20.97-19.17-33.2,0-12.22,8.58-17.18,19.17-11.07,10.59,6.11,19.17,20.97,19.17,33.2,0,12.22-8.58,17.18-19.17,11.07Z"></path>
  </g>
</svg>